<svg width="56" height="56" viewBox="0 0 56 56" fill="none" xmlns="http://www.w3.org/2000/svg">
<circle cx="28" cy="28" r="28" fill="#FEF0FF"/>
<path d="M34.4033 9.07989C34.4033 9.07989 38.1359 8.40039 41.5405 8.40039C44.9452 8.40039 45.9369 9.4704 46.1087 10.2749C46.2883 11.0793 43.9378 10.556 42.3761 13.5083C42.3839 13.5083 36.9724 13.274 34.4033 9.07989Z" fill="#FC9CD6"/>
<path d="M29.4679 21.2559C26.5162 26.6138 28.6089 29.5739 27.1877 29.5192C25.7743 29.4646 23.3224 26.4185 23.541 22.3962C23.541 22.3962 23.9861 20.842 26.2038 20.1859C28.4215 19.5298 29.4679 21.2559 29.4679 21.2559Z" fill="#F991CF"/>
<path d="M42.0796 40.0947C36.5588 41.4927 37.4178 46.585 37.4178 46.585C37.4178 46.585 37.8629 44.7887 39.7448 44.7887C41.6267 44.7887 42.7902 43.0704 42.7902 43.0704C43.4149 45.3901 44.8517 44.8746 45.8356 45.4135C46.8195 45.9524 47.5926 47.6004 47.5926 47.6004C47.5926 41.2897 44.2192 40.0869 44.2192 40.0869C44.2192 40.0869 47.6004 34.7056 47.6004 25.8955C47.6004 17.0855 40.8224 8.40039 28.8984 8.40039C16.9744 8.40039 10.7664 17.3588 11.6488 22.498C11.6488 22.498 8.40039 25.5831 8.40039 27.192C8.40039 30.6989 12.6952 28.1215 17.154 25.4347C22.1126 22.4433 31.6783 18.2804 37.41 24.4584C43.1416 30.6364 42.0796 40.0947 42.0796 40.0947Z" fill="#FC9CD6"/>
<path d="M42.3839 13.5078C42.3917 13.5391 45.8197 23.4816 40.5723 29.5268C42.6806 34.7831 42.0715 40.0941 42.0715 40.0941C36.5507 41.4922 37.4097 46.5845 37.4097 46.5845C37.4097 46.5845 37.8548 44.7881 39.7367 44.7881C41.6186 44.7881 42.7821 43.0699 42.7821 43.0699C43.4068 45.3895 44.8437 44.8741 45.8276 45.413C46.8115 45.9519 47.5845 47.5999 47.5845 47.5999C47.5845 41.2891 44.2111 40.0863 44.2111 40.0863C44.2111 40.0863 47.6001 34.705 47.6001 25.895C47.6001 21.3338 45.7885 16.8116 42.3839 13.5078Z" fill="#F991CF"/>
<path d="M37.0352 20.6392C28.4455 15.1095 19.7153 18.5929 17.4586 21.756C14.0306 26.5516 8.51757 28.0043 8.50195 28.0043C9.18132 30.2224 13.1013 27.8793 17.1541 25.4269C22.1126 22.4355 31.6784 18.2726 37.41 24.4506C43.1494 30.6286 42.0718 40.0947 42.0718 40.0947C42.0718 40.0947 45.6326 26.1689 37.0352 20.6392Z" fill="#FDCDFE"/>
<path d="M8.59561 28.3868L8.41601 27.6292L8.50191 28.0119L8.4082 27.6292C8.46286 27.6135 13.9759 26.2624 17.1306 21.5449L17.7787 21.9823C16.0374 24.5909 13.6401 26.1921 11.93 27.0746C10.0793 28.0275 8.65808 28.3711 8.59561 28.3868Z" fill="#87274F"/>
<path d="M33.2708 18.6305C31.6544 21.8093 32.6851 26.6283 31.0375 26.5267C29.874 26.4565 26.1023 22.6997 27.4454 17.7245C27.4454 17.7245 28.7261 17.0216 30.7485 17.2715C32.771 17.5214 33.2708 18.6305 33.2708 18.6305Z" fill="#FC9CD6"/>
<path d="M18.6293 20.1922C19.2762 20.1922 19.8006 19.6678 19.8006 19.0209C19.8006 18.374 19.2762 17.8496 18.6293 17.8496C17.9824 17.8496 17.458 18.374 17.458 19.0209C17.458 19.6678 17.9824 20.1922 18.6293 20.1922Z" fill="#87274F"/>
<path d="M41.97 27.4658C41.5952 28.1844 41.1345 28.8795 40.5723 29.5199C42.6806 34.7763 42.0716 40.0873 42.0716 40.0873C42.0716 40.0873 43.7817 33.4095 41.97 27.4658Z" fill="#FC9CD6"/>
<path d="M18.8099 13.3347C19.0551 13.8769 20.6329 13.6926 22.334 12.9232C24.0351 12.1537 25.2154 11.0903 24.9703 10.5481C24.7251 10.0059 23.1473 10.1902 21.4462 10.9597C19.7451 11.7292 18.5648 12.7925 18.8099 13.3347Z" fill="#FDCDFE"/>
</svg>
