<svg width="73" height="72" viewBox="0 0 73 72" fill="none" xmlns="http://www.w3.org/2000/svg">
<circle cx="36.667" cy="36" r="36" fill="#FEF0FF"/>
<path d="M44.8994 11.6734C44.8994 11.6734 49.6985 10.7998 54.0758 10.7998C58.4532 10.7998 59.7283 12.1755 59.9491 13.2098C60.1801 14.2442 57.1581 13.5714 55.1501 17.3672C55.1601 17.3672 48.2025 17.0659 44.8994 11.6734Z" fill="#FC9CD6"/>
<path d="M38.5539 27.3278C34.7588 34.2165 37.4495 38.0223 35.6222 37.952C33.805 37.8818 30.6525 33.9654 30.9336 28.7939C30.9336 28.7939 31.5059 26.7956 34.3572 25.952C37.2085 25.1085 38.5539 27.3278 38.5539 27.3278Z" fill="#F991CF"/>
<path d="M54.7686 51.5496C47.6705 53.3471 48.7748 59.8944 48.7748 59.8944C48.7748 59.8944 49.3471 57.5847 51.7667 57.5847C54.1863 57.5847 55.6823 55.3755 55.6823 55.3755C56.4854 58.358 58.3328 57.6952 59.5978 58.3881C60.8628 59.081 61.8568 61.1998 61.8568 61.1998C61.8568 53.086 57.5195 51.5396 57.5195 51.5396C57.5195 51.5396 61.8668 44.6207 61.8668 33.2935C61.8668 21.9663 53.1522 10.7998 37.8214 10.7998C22.4905 10.7998 14.5089 22.3178 15.6434 28.9253C15.6434 28.9253 11.4668 32.8919 11.4668 34.9605C11.4668 39.4693 16.9887 36.1555 22.7215 32.7011C29.0968 28.855 41.3956 23.5027 48.7648 31.4458C56.134 39.3889 54.7686 51.5496 54.7686 51.5496Z" fill="#FC9CD6"/>
<path d="M55.1597 17.3662C55.1698 17.4064 59.5773 30.1896 52.8305 37.962C55.5412 44.7202 54.7581 51.5486 54.7581 51.5486C47.66 53.3461 48.7644 59.8934 48.7644 59.8934C48.7644 59.8934 49.3366 57.5838 51.7562 57.5838C54.1758 57.5838 55.6718 55.3746 55.6718 55.3746C56.4749 58.357 58.3223 57.6943 59.5873 58.3871C60.8523 59.08 61.8463 61.1989 61.8463 61.1989C61.8463 53.085 57.5091 51.5386 57.5091 51.5386C57.5091 51.5386 61.8663 44.6198 61.8663 33.2926C61.8663 27.4281 59.5371 21.6139 55.1597 17.3662Z" fill="#F991CF"/>
<path d="M48.2823 26.5355C37.2384 19.4259 26.0139 23.9046 23.1124 27.9715C18.7049 34.1372 11.6168 36.005 11.5967 36.005C12.4701 38.8569 17.5101 35.8443 22.7208 32.6912C29.0961 28.8451 41.3949 23.4928 48.7642 31.4359C56.1435 39.379 54.758 51.5497 54.758 51.5497C54.758 51.5497 59.3361 33.6451 48.2823 26.5355Z" fill="#FDCDFE"/>
<path d="M11.7175 36.4968L11.4866 35.5228L11.597 36.0148L11.4766 35.5228C11.5468 35.5027 18.635 33.7655 22.6911 27.7002L23.5244 28.2625C21.2855 31.6165 18.2033 33.6751 16.0045 34.8098C13.6251 36.0349 11.7978 36.4768 11.7175 36.4968Z" fill="#87274F"/>
<path d="M43.4434 23.9531C41.3652 28.0401 42.6904 34.2359 40.572 34.1054C39.0761 34.015 34.2268 29.1849 35.9537 22.7882C35.9537 22.7882 37.6002 21.8845 40.2006 22.2058C42.8009 22.5272 43.4434 23.9531 43.4434 23.9531Z" fill="#FC9CD6"/>
<path d="M24.6193 25.9612C25.451 25.9612 26.1252 25.2869 26.1252 24.4552C26.1252 23.6235 25.451 22.9492 24.6193 22.9492C23.7875 22.9492 23.1133 23.6235 23.1133 24.4552C23.1133 25.2869 23.7875 25.9612 24.6193 25.9612Z" fill="#87274F"/>
<path d="M54.6282 35.3125C54.1463 36.2363 53.5539 37.1301 52.8311 37.9535C55.5418 44.7117 54.7587 51.5401 54.7587 51.5401C54.7587 51.5401 56.9574 42.9543 54.6282 35.3125Z" fill="#FC9CD6"/>
<path d="M24.8505 17.1448C25.1657 17.8419 27.1943 17.605 29.3814 16.6156C31.5686 15.6263 33.0861 14.2591 32.7709 13.562C32.4557 12.8649 30.4271 13.1018 28.24 14.0912C26.0528 15.0805 24.5353 16.4477 24.8505 17.1448Z" fill="#FDCDFE"/>
</svg>
