<svg width="150" height="150" viewBox="0 0 150 150" fill="none" xmlns="http://www.w3.org/2000/svg">
<circle cx="75" cy="75" r="75" fill="#FEF0FF"/>
<path d="M92.1514 24.3201C92.1514 24.3201 102.149 22.5 111.269 22.5C120.388 22.5 123.045 25.3661 123.505 27.5209C123.986 29.6757 117.69 28.2741 113.507 36.182C113.528 36.182 99.0328 35.5544 92.1514 24.3201Z" fill="#FC9CD6"/>
<path d="M78.9317 56.9336C71.0253 71.2851 76.6309 79.2139 72.8241 79.0675C69.0383 78.921 62.4705 70.7621 63.0562 59.988C63.0562 59.988 64.2484 55.8248 70.1887 54.0675C76.1289 52.3102 78.9317 56.9336 78.9317 56.9336Z" fill="#F991CF"/>
<path d="M112.712 107.395C97.9243 111.14 100.225 124.78 100.225 124.78C100.225 124.78 101.417 119.969 106.458 119.969C111.499 119.969 114.616 115.366 114.616 115.366C116.289 121.579 120.137 120.199 122.773 121.642C125.408 123.086 127.479 127.5 127.479 127.5C127.479 110.596 118.443 107.374 118.443 107.374C118.443 107.374 127.5 92.9603 127.5 69.3619C127.5 45.7636 109.345 22.5 77.4054 22.5C45.4661 22.5 28.8376 46.4958 31.2012 60.2615C31.2012 60.2615 22.5 68.5251 22.5 72.8347C22.5 82.228 34.004 75.3243 45.9472 68.1276C59.2291 60.1151 84.8516 48.9644 100.204 65.5126C115.557 82.0607 112.712 107.395 112.712 107.395Z" fill="#FC9CD6"/>
<path d="M113.528 36.1807C113.548 36.2643 122.731 62.8961 108.675 79.0886C114.322 93.1681 112.691 107.394 112.691 107.394C97.903 111.139 100.204 124.779 100.204 124.779C100.204 124.779 101.396 119.967 106.437 119.967C111.478 119.967 114.594 115.365 114.594 115.365C116.268 121.578 120.116 120.197 122.752 121.641C125.387 123.084 127.458 127.499 127.458 127.499C127.458 110.595 118.422 107.373 118.422 107.373C118.422 107.373 127.5 92.9589 127.5 69.3606C127.5 57.143 122.647 45.03 113.528 36.1807Z" fill="#F991CF"/>
<path d="M99.1998 55.2834C76.1918 40.4717 52.8073 49.8022 46.7625 58.275C37.5802 71.1202 22.8133 75.0114 22.7715 75.0114C24.5912 80.9528 35.0912 74.6767 45.9468 68.1076C59.2287 60.0951 84.8512 48.9445 100.204 65.4926C115.577 82.0407 112.691 107.396 112.691 107.396C112.691 107.396 122.229 70.0951 99.1998 55.2834Z" fill="#FDCDFE"/>
<path d="M23.0235 76.0353L22.5424 74.0061L22.7725 75.0312L22.5215 74.0061C22.6679 73.9642 37.4348 70.345 45.885 57.709L47.6211 58.8805C42.9567 65.868 36.5354 70.1567 31.9548 72.5207C26.9976 75.073 23.1908 75.9935 23.0235 76.0353Z" fill="#87274F"/>
<path d="M89.1187 49.9033C84.789 58.4179 87.55 71.3259 83.1366 71.0539C80.0201 70.8656 69.9175 60.8028 73.5151 47.4765C73.5151 47.4765 76.9454 45.5936 82.3627 46.2631C87.7801 46.9325 89.1187 49.9033 89.1187 49.9033Z" fill="#FC9CD6"/>
<path d="M49.9001 54.0854C51.6329 54.0854 53.0376 52.6808 53.0376 50.948C53.0376 49.2152 51.6329 47.8105 49.9001 47.8105C48.1674 47.8105 46.7627 49.2152 46.7627 50.948C46.7627 52.6808 48.1674 54.0854 49.9001 54.0854Z" fill="#87274F"/>
<path d="M112.42 73.5674C111.416 75.4921 110.182 77.354 108.676 79.0695C114.323 93.149 112.692 107.375 112.692 107.375C112.692 107.375 117.272 89.4879 112.42 73.5674Z" fill="#FC9CD6"/>
<path d="M50.3825 35.7177C51.0392 37.17 55.2653 36.6765 59.8219 34.6153C64.3785 32.5542 67.54 29.706 66.8834 28.2537C66.2267 26.8014 62.0005 27.2949 57.4439 29.356C52.8873 31.4172 49.7258 34.2654 50.3825 35.7177Z" fill="#FDCDFE"/>
</svg>
