<svg width="150" height="150" viewBox="0 0 150 150" fill="none" xmlns="http://www.w3.org/2000/svg">
<circle cx="75" cy="75" r="75" fill="#D0EBFF"/>
<path d="M108.466 98.0713C108.466 98.0713 102.735 127.5 86.3992 127.5C81.4211 127.5 90.3106 123.505 89.7458 106.145L108.466 98.0713Z" fill="#9CD3FC"/>
<path d="M89.5156 112.439C95.9578 111.31 101.396 109.302 105.998 106.771C107.713 101.876 108.466 98.0488 108.466 98.0488L89.7457 106.122C89.8085 108.486 89.7248 110.577 89.5156 112.439Z" fill="#69BDFB"/>
<path d="M42.3077 48.7077C55.9452 44.901 55.7778 26.9969 55.7778 26.9969C55.7778 26.9969 52.1384 31.1174 46.2609 31.1174C40.3834 31.1174 38.6683 37.6013 38.6683 37.6013C38.501 33.1671 35.6564 29.3604 30.8874 29.3604C26.1185 29.3604 22.5 22.5 22.5 22.5C22.5 45.2775 31.8914 47.4736 31.8914 47.4736C26.3277 85.6871 39.2749 107.628 74.9999 107.628C118.589 107.628 127.5 73.1166 127.5 65.6705C127.5 61.822 122.794 61.2154 122.794 61.2154C119.342 50.7365 99.0955 51.1549 86.2738 56.3629C72.0716 62.1357 64.9601 75.3964 50.7579 70.9832C36.2211 66.4444 42.3077 48.7077 42.3077 48.7077Z" fill="#3279AF"/>
<path d="M90.6872 77.4456C86.483 85.8329 80.3754 86.7114 80.3754 86.7114L59.9193 98.0688C59.9193 98.0688 52.1175 102.754 43.5 98.0688C50.737 104.323 61.1534 107.627 74.9999 107.627C118.59 107.627 127.5 73.116 127.5 65.6699C127.5 61.8214 122.794 61.2148 122.794 61.2148C102.651 61.2358 94.8704 69.0583 90.6872 77.4456Z" fill="#9CD3FC"/>
<path d="M115.786 93.0722L113.987 92.0055C122.312 77.929 121.768 61.4473 121.768 61.28L123.86 61.1963C123.881 61.8865 124.425 78.4729 115.786 93.0722Z" fill="#69BDFB"/>
<path d="M102.965 102.46L101.208 101.309C114.26 81.481 112.942 62.0919 112.921 61.9037L115.013 61.7363C115.034 61.9455 115.389 66.8817 114.092 74.3905C112.879 81.3137 109.972 91.7925 102.965 102.46Z" fill="#69BDFB"/>
<path d="M90.5823 106.771L88.8672 105.557C100.622 88.9502 100.162 66.1727 100.141 65.9426L102.233 65.8799C102.233 66.11 102.379 71.8618 101.02 79.789C99.7855 87.1514 96.9618 97.7767 90.5823 106.771Z" fill="#69BDFB"/>
<path d="M79.2873 108.299L77.6768 106.96C85.6877 97.3601 85.9387 82.9072 85.9387 82.7607L88.0303 82.7817C88.0303 83.4091 87.7793 98.1131 79.2873 108.299Z" fill="#69BDFB"/>
<path d="M80.3754 86.712C80.3754 86.712 82.1324 104.7 72.3226 116.099C62.5129 127.498 53.2679 127.498 50.6533 127.498C48.0388 127.498 53.6234 122.897 57.472 112.857C61.3206 102.817 59.9192 98.0694 59.9192 98.0694C59.9192 98.0694 61.1324 83.7628 80.3754 86.712Z" fill="#3279AF"/>
<path d="M84.4119 76.6732C86.1446 76.6732 87.5493 75.2686 87.5493 73.5358C87.5493 71.8031 86.1446 70.3984 84.4119 70.3984C82.6791 70.3984 81.2744 71.8031 81.2744 73.5358C81.2744 75.2686 82.6791 76.6732 84.4119 76.6732Z" fill="#275E87"/>
<path d="M50.7579 70.9623C36.2211 66.4444 42.3077 48.7077 42.3077 48.7077C55.9452 44.901 55.7778 26.9969 55.7778 26.9969C55.7778 26.9969 52.1384 31.1174 46.2609 31.1174C40.4043 31.1174 38.6474 37.6222 38.6474 37.6222C38.501 33.1671 35.6563 29.3604 30.8874 29.3604C26.1394 29.3604 22.5 22.5 22.5 22.5C22.5 43.1231 30.1972 46.8671 31.6613 47.39L31.8914 47.4736C31.8914 47.4736 35.8446 71.5688 55.7151 71.8407C54.1673 71.7989 52.5149 71.5061 50.7579 70.9623Z" fill="#275E87"/>
</svg>
