<svg width="40" height="40" viewBox="0 0 40 40" fill="none" xmlns="http://www.w3.org/2000/svg">
<circle cx="20" cy="20" r="20" fill="#FDCDFE" fill-opacity="0.3"/>
<path d="M24.668 6.20913C24.668 6.20913 27.3885 5.71387 29.87 5.71387C32.3515 5.71387 33.0743 6.49376 33.1996 7.0801C33.3305 7.66645 31.6173 7.28504 30.479 9.43686C30.4847 9.43686 26.5405 9.26608 24.668 6.20913Z" fill="#FC9CD6"/>
<path d="M21.0701 15.0837C18.9187 18.9888 20.444 21.1463 19.4082 21.1065C18.378 21.0666 16.5909 18.8465 16.7502 15.9148C16.7502 15.9148 17.0746 14.7819 18.691 14.3038C20.3074 13.8256 21.0701 15.0837 21.0701 15.0837Z" fill="#F991CF"/>
<path d="M30.2624 28.8147C26.2385 29.8336 26.8645 33.5453 26.8645 33.5453C26.8645 33.5453 27.1889 32.2359 28.5606 32.2359C29.9323 32.2359 30.7803 30.9836 30.7803 30.9836C31.2356 32.6743 32.2829 32.2986 33 32.6914C33.7171 33.0841 34.2806 34.2853 34.2806 34.2853C34.2806 29.6856 31.8218 28.809 31.8218 28.809C31.8218 28.809 34.2863 24.8867 34.2863 18.4654C34.2863 12.0441 29.346 5.71387 20.6551 5.71387C11.9641 5.71387 7.43937 12.2433 8.08252 15.9891C8.08252 15.9891 5.71484 18.2377 5.71484 19.4104C5.71484 21.9664 8.84518 20.0878 12.095 18.1295C15.7092 15.9493 22.6813 12.9151 26.8588 17.418C31.0364 21.9209 30.2624 28.8147 30.2624 28.8147Z" fill="#FC9CD6"/>
<path d="M30.485 9.43652C30.4907 9.45929 32.9892 16.706 29.1645 21.1122C30.7013 24.9433 30.2573 28.8143 30.2573 28.8143C26.2334 29.8333 26.8595 33.5449 26.8595 33.5449C26.8595 33.5449 27.1839 32.2356 28.5556 32.2356C29.9272 32.2356 30.7752 30.9832 30.7752 30.9832C31.2306 32.6739 32.2778 32.2982 32.9949 32.691C33.7121 33.0838 34.2755 34.285 34.2755 34.285C34.2755 29.6853 31.8168 28.8086 31.8168 28.8086C31.8168 28.8086 34.2869 24.8864 34.2869 18.4651C34.2869 15.1406 32.9665 11.8445 30.485 9.43652Z" fill="#F991CF"/>
<path d="M26.5859 14.6349C20.3252 10.6045 13.9621 13.1434 12.3172 15.4489C9.81866 18.9442 5.80045 20.003 5.78906 20.003C6.28422 21.6198 9.14137 19.912 12.0953 18.1245C15.7094 15.9442 22.6815 12.91 26.8591 17.4129C31.0423 21.9158 30.2569 28.8153 30.2569 28.8153C30.2569 28.8153 32.8522 18.6653 26.5859 14.6349Z" fill="#FDCDFE"/>
<path d="M5.8573 20.2817L5.72639 19.7295L5.789 20.0084L5.7207 19.7295C5.76054 19.7181 9.77876 18.7333 12.0781 15.2949L12.5505 15.6137C11.2813 17.5151 9.53402 18.6821 8.28758 19.3253C6.93869 20.0198 5.90283 20.2703 5.8573 20.2817Z" fill="#87274F"/>
<path d="M23.8425 13.1703C22.6643 15.4872 23.4156 18.9996 22.2147 18.9256C21.3667 18.8744 18.6177 16.1362 19.5966 12.51C19.5966 12.51 20.53 11.9976 22.0041 12.1798C23.4782 12.362 23.8425 13.1703 23.8425 13.1703Z" fill="#FC9CD6"/>
<path d="M13.1701 14.309C13.6416 14.309 14.0239 13.9268 14.0239 13.4553C14.0239 12.9838 13.6416 12.6016 13.1701 12.6016C12.6986 12.6016 12.3164 12.9838 12.3164 13.4553C12.3164 13.9268 12.6986 14.309 13.1701 14.309Z" fill="#87274F"/>
<path d="M30.1828 19.6094C29.9097 20.1331 29.5739 20.6397 29.1641 21.1065C30.7008 24.9377 30.2568 28.8087 30.2568 28.8087C30.2568 28.8087 31.5033 23.9415 30.1828 19.6094Z" fill="#FC9CD6"/>
<path d="M13.3023 9.31005C13.4809 9.70524 14.6309 9.57094 15.8708 9.01009C17.1107 8.44924 17.971 7.67421 17.7923 7.27903C17.6136 6.88384 16.4636 7.01814 15.2237 7.57899C13.9838 8.13984 13.1236 8.91486 13.3023 9.31005Z" fill="#FDCDFE"/>
</svg>
