<svg width="120" height="120" viewBox="0 0 120 120" fill="none" xmlns="http://www.w3.org/2000/svg">
<path d="M79.6016 2.0801C79.6016 2.0801 91.0279 0 101.45 0C111.872 0 114.908 3.27555 115.434 5.73819C115.984 8.20084 108.789 6.59892 104.008 15.6366C104.032 15.6366 87.4661 14.9193 79.6016 2.0801Z" fill="#FC9CD6"/>
<path d="M64.4939 39.3521C55.4581 55.7538 61.8645 64.8154 57.5139 64.648C53.1872 64.4806 45.6812 55.1561 46.3505 42.8429C46.3505 42.8429 47.7131 38.0849 54.5019 36.0766C61.2907 34.0682 64.4939 39.3521 64.4939 39.3521Z" fill="#F991CF"/>
<path d="M103.1 97.0233C86.1992 101.303 88.8287 116.892 88.8287 116.892C88.8287 116.892 90.1912 111.393 95.9522 111.393C101.713 111.393 105.275 106.133 105.275 106.133C107.187 113.234 111.586 111.656 114.598 113.305C117.61 114.955 119.976 120 119.976 120C119.976 100.681 109.649 96.9994 109.649 96.9994C109.649 96.9994 120 80.526 120 53.5565C120 26.587 99.251 0 62.749 0C26.247 0 7.24303 27.4238 9.94422 43.156C9.94422 43.156 0 52.6001 0 57.5254C0 68.2606 13.1474 60.3706 26.7968 52.1458C41.9761 42.9886 71.259 30.2451 88.8048 49.1572C106.351 68.0693 103.1 97.0233 103.1 97.0233Z" fill="#FC9CD6"/>
<path d="M104.031 15.6357C104.055 15.7314 114.549 46.1677 98.4856 64.6734C104.94 80.7643 103.075 97.0225 103.075 97.0225C86.1749 101.302 88.8043 116.891 88.8043 116.891C88.8043 116.891 90.1669 111.392 95.9279 111.392C101.689 111.392 105.251 106.132 105.251 106.132C107.163 113.233 111.561 111.655 114.573 113.305C117.585 114.954 119.952 119.999 119.952 119.999C119.952 100.681 109.625 96.9986 109.625 96.9986C109.625 96.9986 120 80.5252 120 53.5557C120 39.5927 114.454 25.7493 104.031 15.6357Z" fill="#F991CF"/>
<path d="M87.6572 37.4669C61.3623 20.5392 34.6372 31.2027 27.7289 40.8859C17.2348 55.5661 0.358356 60.0132 0.310547 60.0132C2.39023 66.8034 14.3902 59.6306 26.7966 52.1232C41.9759 42.966 71.2588 30.2224 88.8046 49.1345C106.374 68.0467 103.075 97.0245 103.075 97.0245C103.075 97.0245 113.976 54.3945 87.6572 37.4669Z" fill="#FDCDFE"/>
<path d="M0.599096 61.1837L0.049295 58.8645L0.312243 60.036L0.0253906 58.8645C0.192721 58.8167 17.0692 54.6804 26.7266 40.2393L28.7106 41.5782C23.38 49.5638 16.0413 54.4652 10.8063 57.1669C5.14093 60.0839 0.790331 61.1359 0.599096 61.1837Z" fill="#87274F"/>
<path d="M76.1357 31.3179C71.1874 41.0489 74.3428 55.8008 69.299 55.49C65.7372 55.2748 54.1914 43.7745 58.303 28.5444C58.303 28.5444 62.2233 26.3926 68.4145 27.1577C74.6058 27.9228 76.1357 31.3179 76.1357 31.3179Z" fill="#FC9CD6"/>
<path d="M31.3142 36.0981C33.2945 36.0981 34.8998 34.4927 34.8998 32.5124C34.8998 30.5321 33.2945 28.9268 31.3142 28.9268C29.3339 28.9268 27.7285 30.5321 27.7285 32.5124C27.7285 34.4927 29.3339 36.0981 31.3142 36.0981Z" fill="#87274F"/>
<path d="M102.765 58.3633C101.618 60.5629 100.207 62.6908 98.4863 64.6514C104.941 80.7422 103.076 97.0005 103.076 97.0005C103.076 97.0005 108.311 76.5581 102.765 58.3633Z" fill="#FC9CD6"/>
<path d="M31.866 15.1059C32.6165 16.7657 37.4464 16.2017 42.6539 13.8461C47.8615 11.4905 51.4746 8.23541 50.7241 6.57563C49.9736 4.91584 45.1437 5.47989 39.9362 7.83546C34.7286 10.191 31.1155 13.4461 31.866 15.1059Z" fill="#FDCDFE"/>
</svg>
