<svg width="150" height="150" viewBox="0 0 150 150" fill="none" xmlns="http://www.w3.org/2000/svg">
<circle cx="75" cy="75" r="75" fill="white"/>
<path d="M73.5799 110.643L73.5537 110.629L73.4632 110.58C73.386 110.538 73.2756 110.477 73.1343 110.398C72.8517 110.241 72.4449 110.01 71.9318 109.708C70.906 109.104 69.4527 108.216 67.7142 107.06C64.243 104.752 59.6049 101.36 54.9544 97.0253C45.7512 88.4462 36 75.7004 36 60C36 48.2878 45.8544 39 57.75 39C64.7455 39 71.0093 42.1964 75 47.2064C78.9907 42.1964 85.2545 39 92.25 39C104.146 39 114 48.2878 114 60C114 75.7004 104.249 88.4462 95.0456 97.0253C90.3951 101.36 85.757 104.752 82.2858 107.06C80.5473 108.216 79.094 109.104 78.0682 109.708C77.5551 110.01 77.1483 110.241 76.8657 110.398C76.7244 110.477 76.614 110.538 76.5368 110.58L76.4463 110.629L76.4201 110.643L76.4091 110.648C75.5292 111.116 74.4708 111.116 73.5909 110.648L73.5799 110.643Z" fill="#F06C9B"/>
</svg>
