<svg width="120" height="120" viewBox="0 0 120 120" fill="none" xmlns="http://www.w3.org/2000/svg">
<g id="XMLID_1_">
<g id="XMLID_3751_">
<path id="XMLID_1558_" d="M98.2466 86.3672C98.2466 86.3672 91.6968 120 73.0275 120C67.3383 120 77.4976 115.434 76.8522 95.5941L98.2466 86.3672Z" fill="#9CD3FC"/>
<path id="XMLID_2090_" d="M76.5889 102.788C83.9514 101.497 90.1665 99.2021 95.4255 96.3097C97.3856 90.7162 98.2462 86.3418 98.2462 86.3418L76.8518 95.5687C76.9235 98.2699 76.8279 100.66 76.5889 102.788Z" fill="#69BDFB"/>
<path id="XMLID_1564_" d="M22.6374 29.9516C38.223 25.6011 38.0318 5.13935 38.0318 5.13935C38.0318 5.13935 33.8724 9.84843 27.1553 9.84843C20.4382 9.84843 18.4781 17.2586 18.4781 17.2586C18.2868 12.191 15.0358 7.84049 9.58564 7.84049C4.13545 7.84049 0 0 0 0C0 26.0314 10.733 28.5413 10.733 28.5413C4.37449 72.2138 19.1713 97.2891 59.9999 97.2891C109.817 97.2891 120 57.8475 120 49.3377C120 44.9394 114.621 44.2462 114.621 44.2462C110.677 32.2703 87.5377 32.7484 72.8843 38.7005C56.6533 45.298 48.5258 60.4531 32.2948 55.4093C15.6812 50.2222 22.6374 29.9516 22.6374 29.9516Z" fill="#3279AF"/>
<path id="XMLID_1607_" d="M77.9282 62.7946C73.1234 72.3801 66.1433 73.384 66.1433 73.384L42.7649 86.3639C42.7649 86.3639 33.8486 91.7184 24 86.3639C32.2709 93.5112 44.1753 97.288 59.9999 97.288C109.817 97.288 120 57.8465 120 49.3367C120 44.9383 114.621 44.2451 114.621 44.2451C91.6015 44.269 82.7091 53.2091 77.9282 62.7946Z" fill="#9CD3FC"/>
<g id="XMLID_1563_">
<path id="XMLID_2241_" d="M106.613 80.6532L104.558 79.4341C114.072 63.3468 113.45 44.5105 113.45 44.3192L115.84 44.2236C115.864 45.0125 116.486 63.9683 106.613 80.6532Z" fill="#69BDFB"/>
</g>
<g id="XMLID_1562_">
<path id="XMLID_2240_" d="M91.9601 91.3828L89.9521 90.0681C104.868 67.4071 103.362 45.2482 103.339 45.033L105.729 44.8418C105.753 45.0808 106.159 50.7222 104.677 59.3037C103.291 67.2159 99.9681 79.1918 91.9601 91.3828Z" fill="#69BDFB"/>
</g>
<g id="XMLID_1561_">
<path id="XMLID_2239_" d="M77.8088 96.3094L75.8486 94.9229C89.2829 75.9432 88.757 49.9118 88.7331 49.6489L91.1235 49.5771C91.1235 49.8401 91.2908 56.4137 89.7371 65.4733C88.3267 73.8875 85.0996 86.0307 77.8088 96.3094Z" fill="#69BDFB"/>
</g>
<g id="XMLID_1560_">
<path id="XMLID_2238_" d="M64.9002 98.0559L63.0596 96.526C72.2149 85.5541 72.5018 69.0365 72.5018 68.8691L74.8922 68.893C74.8922 69.6102 74.6054 86.4146 64.9002 98.0559Z" fill="#69BDFB"/>
</g>
<path id="XMLID_2235_" d="M66.1433 73.3844C66.1433 73.3844 68.1513 93.9418 56.9401 106.969C45.729 119.997 35.1633 119.997 32.1752 119.997C29.1872 119.997 35.5696 114.738 39.968 103.264C44.3664 91.7905 42.7649 86.3643 42.7649 86.3643C42.7649 86.3643 44.1513 70.014 66.1433 73.3844Z" fill="#3279AF"/>
<g id="Group">
<path id="XMLID_1557_" d="M70.7565 61.9124C72.7368 61.9124 74.3422 60.3071 74.3422 58.3268C74.3422 56.3465 72.7368 54.7412 70.7565 54.7412C68.7762 54.7412 67.1709 56.3465 67.1709 58.3268C67.1709 60.3071 68.7762 61.9124 70.7565 61.9124Z" fill="#275E87"/>
<g id="XMLID_2246_">
<path id="XMLID_2247_" d="M32.2948 55.3854C15.6812 50.2222 22.6374 29.9516 22.6374 29.9516C38.223 25.6011 38.0318 5.13935 38.0318 5.13935C38.0318 5.13935 33.8724 9.84843 27.1553 9.84843C20.4621 9.84843 18.4541 17.2826 18.4541 17.2826C18.2868 12.191 15.0358 7.84049 9.58564 7.84049C4.15935 7.84049 0 0 0 0C0 23.5693 8.7968 27.8481 10.4701 28.4457L10.733 28.5413C10.733 28.5413 15.251 56.0787 37.9601 56.3894C36.1912 56.3416 34.3027 56.0069 32.2948 55.3854Z" fill="#275E87"/>
</g>
</g>
</g>
</g>
</svg>
