<svg width="35" height="21" viewBox="0 0 35 21" fill="none" xmlns="http://www.w3.org/2000/svg">
<path d="M8.51283 20.392C6.04883 20.392 4.08883 19.72 2.63283 18.376C1.17683 17.0133 0.448828 15.072 0.448828 12.552V7.848C0.448828 5.328 1.17683 3.396 2.63283 2.052C4.08883 0.689332 6.04883 0.0079987 8.51283 0.0079987C10.9768 0.0079987 12.9368 0.689332 14.3928 2.052C15.8488 3.396 16.5768 5.328 16.5768 7.848V12.552C16.5768 15.072 15.8488 17.0133 14.3928 18.376C12.9368 19.72 10.9768 20.392 8.51283 20.392ZM8.51283 17.088C9.89416 17.088 10.9675 16.6867 11.7328 15.884C12.4982 15.0813 12.8808 14.008 12.8808 12.664V7.736C12.8808 6.392 12.4982 5.31867 11.7328 4.516C10.9675 3.71333 9.89416 3.312 8.51283 3.312C7.15016 3.312 6.07683 3.71333 5.29283 4.516C4.5275 5.31867 4.14483 6.392 4.14483 7.736V12.664C4.14483 14.008 4.5275 15.0813 5.29283 15.884C6.07683 16.6867 7.15016 17.088 8.51283 17.088ZM26.6227 20.392C25.1107 20.392 23.776 20.1213 22.6187 19.58C21.4614 19.0387 20.556 18.264 19.9027 17.256C19.2494 16.248 18.9227 15.0347 18.9227 13.616V12.832H22.5627V13.616C22.5627 14.792 22.9267 15.6787 23.6547 16.276C24.3827 16.8547 25.372 17.144 26.6227 17.144C27.892 17.144 28.8347 16.892 29.4507 16.388C30.0854 15.884 30.4027 15.24 30.4027 14.456C30.4027 13.9147 30.244 13.476 29.9267 13.14C29.628 12.804 29.18 12.5333 28.5827 12.328C28.004 12.104 27.2947 11.8987 26.4547 11.712L25.8107 11.572C24.4667 11.2733 23.3094 10.9 22.3387 10.452C21.3867 9.98533 20.6494 9.37867 20.1267 8.632C19.6227 7.88533 19.3707 6.91467 19.3707 5.72C19.3707 4.52533 19.6507 3.508 20.2107 2.668C20.7894 1.80933 21.592 1.156 22.6187 0.708C23.664 0.241332 24.8867 0.0079987 26.2867 0.0079987C27.6867 0.0079987 28.928 0.250666 30.0107 0.735999C31.112 1.20267 31.9707 1.912 32.5867 2.864C33.2214 3.79733 33.5387 4.97333 33.5387 6.392V7.232H29.8987V6.392C29.8987 5.64533 29.7494 5.048 29.4507 4.6C29.1707 4.13333 28.76 3.79733 28.2187 3.592C27.6774 3.368 27.0334 3.256 26.2867 3.256C25.1667 3.256 24.336 3.47067 23.7947 3.9C23.272 4.31067 23.0107 4.88 23.0107 5.608C23.0107 6.09333 23.132 6.504 23.3747 6.84C23.636 7.176 24.0187 7.456 24.5227 7.68C25.0267 7.904 25.6707 8.1 26.4547 8.268L27.0987 8.408C28.4987 8.70667 29.712 9.08933 30.7387 9.556C31.784 10.0227 32.596 10.6387 33.1747 11.404C33.7534 12.1693 34.0427 13.1493 34.0427 14.344C34.0427 15.5387 33.7347 16.5933 33.1187 17.508C32.5214 18.404 31.6627 19.1133 30.5427 19.636C29.4414 20.14 28.1347 20.392 26.6227 20.392Z" fill="#0D7FE8"/>
</svg>
