<svg width="92" height="38" viewBox="0 0 92 38" fill="none" xmlns="http://www.w3.org/2000/svg">
<path d="M14.3499 18.9901C14.3499 22.8847 11.1188 26.0549 7.17644 26.0549C3.18725 26.0549 0 22.8847 0 18.9901C0 15.1157 3.18725 11.9253 7.17351 11.9253C11.1188 11.9253 14.3499 15.1157 14.3499 18.9901ZM3.06725 18.9901C3.06725 21.2176 4.90819 23.0054 7.17644 23.0054C9.40371 23.0054 11.2446 21.2176 11.2446 18.9901C11.2446 16.7827 9.40371 14.995 7.17644 14.995C4.90527 14.995 3.06725 16.7827 3.06725 18.9901ZM29.9028 22.5024C28.656 24.5488 26.3468 26.0549 23.4024 26.0549C19.0474 26.0549 15.8806 22.922 15.8806 18.8895C15.8806 15.0956 19.0503 11.9253 23.4024 11.9253C26.3673 11.9253 28.697 13.2905 29.9438 15.337L27.1019 16.9638C26.4492 15.7193 25.1614 14.8972 23.4024 14.8972C20.9703 14.8972 19.2728 16.6448 19.2728 18.8924C19.2728 21.0595 20.9703 22.968 23.4024 22.968C25.1205 22.968 26.3878 22.1058 27.0609 20.9015L29.9028 22.5024ZM42.8011 12.1639V15.2163H35.5017V17.5645H41.5923V20.4157H35.5017V22.764H42.7981V25.8164H32.1476V12.1639H42.8011ZM55.8808 23.6866H49.1756L48.2566 25.8135H44.7005L50.6477 12.1639H54.3882L60.3558 25.8135H56.7793L55.8808 23.6866ZM54.716 20.9963L52.5501 15.8975L50.3404 20.9963H54.716ZM76.1984 25.8164H72.8268L65.7938 17.4639V25.8135H62.4221V12.1639H65.7938L72.8268 20.4933V12.1639H76.1984V25.8164Z" fill="#3580E1"/>
<path fill-rule="evenodd" clip-rule="evenodd" d="M32.1494 3.3501H91.6496V34.6501H32.1494V27.6898H35.4494V31.3501H88.3496V6.6501H35.4494V10.3104H32.1494V3.3501Z" fill="url(#paint0_linear_1260_5782)"/>
<defs>
<linearGradient id="paint0_linear_1260_5782" x1="34.2677" y1="18.0346" x2="89.9996" y2="18.0346" gradientUnits="userSpaceOnUse">
<stop offset="0.13" stop-color="#3580E1"/>
<stop offset="1" stop-color="#1B4AA2" stop-opacity="0.9735"/>
</linearGradient>
</defs>
</svg>
