<svg width="72" height="72" viewBox="0 0 72 72" fill="none" xmlns="http://www.w3.org/2000/svg">
<circle cx="36" cy="36" r="36" fill="#D0EBFF"/>
<path d="M52.063 47.0742C52.063 47.0742 49.3121 61.2 41.471 61.2C39.0815 61.2 43.3484 59.2824 43.0773 50.9495L52.063 47.0742Z" fill="#9CD3FC"/>
<path d="M42.9668 53.9708C46.0591 53.4286 48.6694 52.4648 50.8782 51.25C51.7014 48.9007 52.0629 47.0635 52.0629 47.0635L43.0772 50.9388C43.1074 52.0733 43.0672 53.0772 42.9668 53.9708Z" fill="#69BDFB"/>
<path d="M20.3075 23.3795C26.8535 21.5523 26.7732 12.9583 26.7732 12.9583C26.7732 12.9583 25.0262 14.9361 22.205 14.9361C19.3839 14.9361 18.5606 18.0484 18.5606 18.0484C18.4803 15.92 17.1149 14.0928 14.8258 14.0928C12.5367 14.0928 10.7998 10.7998 10.7998 10.7998C10.7998 21.733 15.3077 22.7872 15.3077 22.7872C12.6371 41.1296 18.8517 51.6612 35.9998 51.6612C56.9227 51.6612 61.1997 35.0958 61.1997 31.5217C61.1997 29.6744 58.9408 29.3832 58.9408 29.3832C57.2842 24.3533 47.5656 24.5541 41.4112 27.054C34.5942 29.825 31.1806 36.1901 24.3636 34.0717C17.3859 31.8931 20.3075 23.3795 20.3075 23.3795Z" fill="#3279AF"/>
<path d="M43.5297 37.1736C41.5117 41.1995 38.5801 41.6212 38.5801 41.6212L28.7611 47.0727C28.7611 47.0727 25.0163 49.3216 20.8799 47.0727C24.3537 50.0745 29.3535 51.6608 35.9999 51.6608C56.9228 51.6608 61.1998 35.0954 61.1998 31.5213C61.1998 29.674 58.9408 29.3828 58.9408 29.3828C49.2725 29.3929 45.5377 33.1477 43.5297 37.1736Z" fill="#9CD3FC"/>
<path d="M55.5773 44.6745L54.7139 44.1624C58.7097 37.4057 58.4487 29.4945 58.4487 29.4142L59.4527 29.374C59.4627 29.7053 59.7237 37.6668 55.5773 44.6745Z" fill="#69BDFB"/>
<path d="M49.4234 49.181L48.5801 48.6288C54.8449 39.1112 54.2124 29.8045 54.2024 29.7141L55.2064 29.6338C55.2164 29.7342 55.3871 32.1035 54.7646 35.7078C54.1823 39.0309 52.7868 44.0608 49.4234 49.181Z" fill="#69BDFB"/>
<path d="M43.4795 51.2496L42.6562 50.6673C48.2986 42.6958 48.0778 31.7626 48.0677 31.6522L49.0717 31.6221C49.0717 31.7325 49.142 34.4934 48.4894 38.2984C47.897 41.8324 46.5417 46.9326 43.4795 51.2496Z" fill="#69BDFB"/>
<path d="M38.0582 51.983L37.2852 51.3405C41.1304 46.7323 41.2509 39.7949 41.2509 39.7246L42.2549 39.7346C42.2549 40.0358 42.1344 47.0937 38.0582 51.983Z" fill="#69BDFB"/>
<path d="M38.5798 41.6209C38.5798 41.6209 39.4231 50.255 34.7145 55.7267C30.0058 61.1983 25.5682 61.1983 24.3132 61.1983C23.0582 61.1983 25.7389 58.9895 27.5862 54.1705C29.4335 49.3515 28.7608 47.0725 28.7608 47.0725C28.7608 47.0725 29.3432 40.2053 38.5798 41.6209Z" fill="#3279AF"/>
<path d="M40.5177 36.8029C41.3494 36.8029 42.0237 36.1287 42.0237 35.297C42.0237 34.4653 41.3494 33.791 40.5177 33.791C39.686 33.791 39.0117 34.4653 39.0117 35.297C39.0117 36.1287 39.686 36.8029 40.5177 36.8029Z" fill="#275E87"/>
<path d="M24.3636 34.0617C17.3859 31.8931 20.3075 23.3795 20.3075 23.3795C26.8535 21.5523 26.7732 12.9583 26.7732 12.9583C26.7732 12.9583 25.0262 14.9361 22.205 14.9361C19.3939 14.9361 18.5505 18.0585 18.5505 18.0585C18.4803 15.92 17.1149 14.0928 14.8258 14.0928C12.5467 14.0928 10.7998 10.7998 10.7998 10.7998C10.7998 20.6989 14.4945 22.496 15.1972 22.747L15.3077 22.7872C15.3077 22.7872 17.2052 34.3528 26.743 34.4834C26.0001 34.4633 25.207 34.3227 24.3636 34.0617Z" fill="#275E87"/>
</svg>
