<svg width="56" height="56" viewBox="0 0 56 56" fill="none" xmlns="http://www.w3.org/2000/svg">
<circle cx="28" cy="28" r="28" fill="#D0EBFF"/>
<path d="M40.7492 36.7891C40.7492 36.7891 38.5659 48 32.3428 48C30.4464 48 33.8329 46.4781 33.6177 39.8647L40.7492 36.7891Z" fill="#9CD3FC"/>
<path d="M33.5293 42.2622C35.9835 41.832 38.0552 41.067 39.8082 40.1029C40.4616 38.2384 40.7484 36.7803 40.7484 36.7803L33.6169 39.8559C33.6409 40.7563 33.609 41.5531 33.5293 42.2622Z" fill="#69BDFB"/>
<path d="M15.5458 17.9839C20.741 16.5337 20.6773 9.71312 20.6773 9.71312C20.6773 9.71312 19.2908 11.2828 17.0518 11.2828C14.8127 11.2828 14.1594 13.7529 14.1594 13.7529C14.0956 12.0637 13.0119 10.6135 11.1952 10.6135C9.37848 10.6135 8 8 8 8C8 16.6771 11.5777 17.5138 11.5777 17.5138C9.45816 32.0713 14.3904 40.4297 28 40.4297C44.6055 40.4297 47.9999 27.2825 47.9999 24.4459C47.9999 22.9798 46.2071 22.7487 46.2071 22.7487C44.8924 18.7568 37.1792 18.9161 32.2948 20.9002C26.8844 23.0993 24.1753 28.151 18.7649 26.4698C13.2271 24.7407 15.5458 17.9839 15.5458 17.9839Z" fill="#3279AF"/>
<path d="M33.9761 28.9312C32.3745 32.1264 30.0478 32.461 30.0478 32.461L22.255 36.7876C22.255 36.7876 19.2829 38.5725 16 36.7876C18.757 39.1701 22.7251 40.429 28 40.429C44.6055 40.429 47.9999 27.2818 47.9999 24.4452C47.9999 22.9791 46.2071 22.748 46.2071 22.748C38.5338 22.756 35.5697 25.736 33.9761 28.9312Z" fill="#9CD3FC"/>
<path d="M43.5378 34.8844L42.8525 34.478C46.0238 29.1156 45.8167 22.8368 45.8167 22.7731L46.6135 22.7412C46.6215 23.0042 46.8286 29.3228 43.5378 34.8844Z" fill="#69BDFB"/>
<path d="M38.6537 38.4609L37.9844 38.0227C42.9565 30.469 42.4545 23.0827 42.4465 23.011L43.2433 22.9473C43.2513 23.0269 43.3868 24.9074 42.8927 27.7679C42.4306 30.4053 41.323 34.3973 38.6537 38.4609Z" fill="#69BDFB"/>
<path d="M33.9366 40.1028L33.2832 39.6407C37.7613 33.3141 37.586 24.6369 37.578 24.5493L38.3748 24.5254C38.3748 24.613 38.4306 26.8042 37.9127 29.8241C37.4426 32.6288 36.3669 36.6766 33.9366 40.1028Z" fill="#69BDFB"/>
<path d="M29.6331 40.685L29.0195 40.175C32.0713 36.5177 32.1669 31.0118 32.1669 30.9561L32.9637 30.964C32.9637 31.2031 32.8681 36.8046 29.6331 40.685Z" fill="#69BDFB"/>
<path d="M30.0478 32.4612C30.0478 32.4612 30.7171 39.3136 26.98 43.6562C23.243 47.9987 19.7211 47.9987 18.7251 47.9987C17.7291 47.9987 19.8565 46.2458 21.3227 42.4211C22.7888 38.5965 22.255 36.7878 22.255 36.7878C22.255 36.7878 22.7171 31.3377 30.0478 32.4612Z" fill="#3279AF"/>
<path d="M31.5858 28.6375C32.2459 28.6375 32.7811 28.1024 32.7811 27.4423C32.7811 26.7822 32.2459 26.2471 31.5858 26.2471C30.9257 26.2471 30.3906 26.7822 30.3906 27.4423C30.3906 28.1024 30.9257 28.6375 31.5858 28.6375Z" fill="#275E87"/>
<path d="M18.7649 26.4618C13.2271 24.7407 15.5458 17.9839 15.5458 17.9839C20.741 16.5337 20.6773 9.71312 20.6773 9.71312C20.6773 9.71312 19.2908 11.2828 17.0518 11.2828C14.8207 11.2828 14.1514 13.7609 14.1514 13.7609C14.0956 12.0637 13.0119 10.6135 11.1952 10.6135C9.38645 10.6135 8 8 8 8C8 15.8564 10.9323 17.2827 11.49 17.4819L11.5777 17.5138C11.5777 17.5138 13.0837 26.6929 20.6534 26.7965C20.0637 26.7805 19.4342 26.669 18.7649 26.4618Z" fill="#275E87"/>
</svg>
