<svg width="56" height="56" viewBox="0 0 56 56" fill="none" xmlns="http://www.w3.org/2000/svg">
<circle cx="28" cy="28" r="28" fill="#D0EBFF"/>
<path d="M40.4943 36.6133C40.4943 36.6133 38.3547 47.6 32.2561 47.6C30.3976 47.6 33.7163 46.1086 33.5055 39.6274L40.4943 36.6133Z" fill="#9CD3FC"/>
<path d="M33.4199 41.9778C35.825 41.5561 37.8553 40.8065 39.5732 39.8617C40.2135 38.0344 40.4946 36.6055 40.4946 36.6055L33.5058 39.6196C33.5292 40.502 33.498 41.2828 33.4199 41.9778Z" fill="#69BDFB"/>
<path d="M15.7953 18.1846C20.8866 16.7634 20.8241 10.0792 20.8241 10.0792C20.8241 10.0792 19.4654 11.6175 17.2711 11.6175C15.0769 11.6175 14.4366 14.0382 14.4366 14.0382C14.3741 12.3828 13.3121 10.9616 11.5317 10.9616C9.7513 10.9616 8.40039 8.40039 8.40039 8.40039C8.40039 16.904 11.9065 17.7239 11.9065 17.7239C9.82939 31.9902 14.663 40.1815 28.0004 40.1815C44.2738 40.1815 47.6003 27.2973 47.6003 24.5174C47.6003 23.0806 45.8434 22.8542 45.8434 22.8542C44.5549 18.942 36.996 19.0982 32.2093 21.0426C26.9071 23.1977 24.2522 28.1484 18.95 26.5008C13.5229 24.8063 15.7953 18.1846 15.7953 18.1846Z" fill="#3279AF"/>
<path d="M33.8568 28.913C32.2872 32.0443 30.0071 32.3722 30.0071 32.3722L22.3701 36.6123C22.3701 36.6123 19.4574 38.3614 16.2402 36.6123C18.9421 38.9471 22.8308 40.1809 28.0002 40.1809C44.2736 40.1809 47.6002 27.2966 47.6002 24.5168C47.6002 23.08 45.8432 22.8535 45.8432 22.8535C38.3234 22.8613 35.4185 25.7818 33.8568 28.913Z" fill="#9CD3FC"/>
<path d="M43.2272 34.747L42.5557 34.3488C45.6635 29.0936 45.4605 22.9404 45.4605 22.8779L46.2414 22.8467C46.2492 23.1044 46.4522 29.2966 43.2272 34.747Z" fill="#69BDFB"/>
<path d="M38.4411 38.2522L37.7852 37.8227C42.6578 30.4202 42.1659 23.1816 42.1581 23.1113L42.9389 23.0488C42.9467 23.1269 43.0795 24.9697 42.5953 27.773C42.1424 30.3577 41.057 34.2698 38.4411 38.2522Z" fill="#69BDFB"/>
<path d="M33.8181 39.8616L33.1777 39.4087C37.5663 33.2086 37.3945 24.705 37.3867 24.6191L38.1675 24.5957C38.1675 24.6816 38.2222 26.829 37.7146 29.7884C37.2539 32.5371 36.1997 36.5039 33.8181 39.8616Z" fill="#69BDFB"/>
<path d="M29.6013 40.4318L29 39.932C31.9908 36.3479 32.0845 30.9521 32.0845 30.8975L32.8653 30.9053C32.8653 31.1395 32.7716 36.629 29.6013 40.4318Z" fill="#69BDFB"/>
<path d="M30.0076 32.3731C30.0076 32.3731 30.6635 39.0886 27.0012 43.3443C23.3389 47.6 19.8875 47.6 18.9114 47.6C17.9353 47.6 20.0202 45.8821 21.457 42.1339C22.8938 38.3858 22.3706 36.6132 22.3706 36.6132C22.3706 36.6132 22.8235 31.2721 30.0076 32.3731Z" fill="#3279AF"/>
<path d="M31.5141 28.6248C32.161 28.6248 32.6854 28.1004 32.6854 27.4535C32.6854 26.8066 32.161 26.2822 31.5141 26.2822C30.8672 26.2822 30.3428 26.8066 30.3428 27.4535C30.3428 28.1004 30.8672 28.6248 31.5141 28.6248Z" fill="#275E87"/>
<path d="M18.95 26.493C13.5229 24.8063 15.7953 18.1846 15.7953 18.1846C20.8866 16.7634 20.8241 10.0792 20.8241 10.0792C20.8241 10.0792 19.4654 11.6175 17.2711 11.6175C15.0847 11.6175 14.4287 14.046 14.4287 14.046C14.3741 12.3828 13.3121 10.9616 11.5317 10.9616C9.75911 10.9616 8.40039 8.40039 8.40039 8.40039C8.40039 16.0997 11.274 17.4974 11.8206 17.6927L11.9065 17.7239C11.9065 17.7239 13.3824 26.7194 20.8007 26.8209C20.2228 26.8053 19.6059 26.696 18.95 26.493Z" fill="#275E87"/>
</svg>
