<svg width="350" height="313" viewBox="0 0 350 313" fill="none" xmlns="http://www.w3.org/2000/svg">
<g clip-path="url(#clip0_503_3821)">
<rect width="350" height="313" rx="20" fill="#074782"/>
<path d="M177.825 169.44V171.8H176.465C175.372 171.8 174.825 172.347 174.825 173.44V174.72H175.425C176.359 174.72 177.132 175 177.745 175.56C178.359 176.12 178.665 176.827 178.665 177.68C178.665 178.613 178.359 179.373 177.745 179.96C177.132 180.52 176.359 180.8 175.425 180.8C174.492 180.8 173.719 180.507 173.105 179.92C172.519 179.307 172.225 178.52 172.225 177.56V173.4C172.225 170.76 173.545 169.44 176.185 169.44H177.825ZM169.945 169.44V171.8H168.585C167.492 171.8 166.945 172.347 166.945 173.44V174.72H167.545C168.479 174.72 169.252 175 169.865 175.56C170.479 176.12 170.785 176.827 170.785 177.68C170.785 178.613 170.479 179.373 169.865 179.96C169.252 180.52 168.479 180.8 167.545 180.8C166.612 180.8 165.839 180.507 165.225 179.92C164.639 179.307 164.345 178.52 164.345 177.56V173.4C164.345 170.76 165.665 169.44 168.305 169.44H169.945Z" fill="white"/>
<path d="M164.185 277.8V275.44H165.545C166.639 275.44 167.185 274.893 167.185 273.8V272.52H166.585C165.652 272.52 164.879 272.24 164.265 271.68C163.652 271.12 163.345 270.413 163.345 269.56C163.345 268.627 163.652 267.88 164.265 267.32C164.879 266.733 165.652 266.44 166.585 266.44C167.519 266.44 168.279 266.747 168.865 267.36C169.479 267.947 169.785 268.72 169.785 269.68V273.84C169.785 276.48 168.465 277.8 165.825 277.8H164.185ZM172.065 277.8V275.44H173.425C174.519 275.44 175.065 274.893 175.065 273.8V272.52H174.465C173.532 272.52 172.759 272.24 172.145 271.68C171.532 271.12 171.225 270.413 171.225 269.56C171.225 268.627 171.532 267.88 172.145 267.32C172.759 266.733 173.532 266.44 174.465 266.44C175.399 266.44 176.159 266.747 176.745 267.36C177.359 267.947 177.665 268.72 177.665 269.68V273.84C177.665 276.48 176.345 277.8 173.705 277.8H172.065Z" fill="white"/>
<path d="M78.3297 217C78.0297 217 77.8197 216.94 77.6997 216.82C77.5797 216.688 77.5197 216.49 77.5197 216.226V211.096L77.1057 210.088C76.9977 209.812 76.9437 209.614 76.9437 209.494C76.9437 209.302 77.0337 209.134 77.2137 208.99C77.7897 208.51 78.4917 208.108 79.3197 207.784C80.1597 207.448 81.0717 207.28 82.0557 207.28C83.7357 207.28 84.9477 207.646 85.6917 208.378C86.4357 209.098 86.8077 210.07 86.8077 211.294V216.226C86.8077 216.49 86.7417 216.688 86.6097 216.82C86.4897 216.94 86.2797 217 85.9797 217H84.6477C84.3477 217 84.1317 216.94 83.9997 216.82C83.8797 216.688 83.8197 216.49 83.8197 216.226V211.222C83.8197 210.622 83.6757 210.178 83.3877 209.89C83.1117 209.59 82.6617 209.44 82.0377 209.44C81.2457 209.44 80.5797 209.65 80.0397 210.07L80.2557 210.502C80.3397 210.67 80.3997 210.832 80.4357 210.988C80.4717 211.144 80.4897 211.336 80.4897 211.564V216.226C80.4897 216.49 80.4237 216.688 80.2917 216.82C80.1717 216.94 79.9617 217 79.6617 217H78.3297ZM92.4392 217C91.9592 217 91.7192 216.766 91.7192 216.298V210.97C91.7192 210.406 91.6172 210.01 91.4132 209.782C91.2092 209.542 90.8492 209.422 90.3332 209.422C89.7812 209.422 89.2592 209.554 88.7672 209.818C88.6472 209.878 88.5572 209.908 88.4972 209.908C88.3772 209.908 88.2992 209.836 88.2632 209.692L87.8672 208.306L87.8312 208.09C87.8312 207.982 87.9032 207.898 88.0472 207.838C88.8272 207.466 89.7512 207.28 90.8192 207.28C92.1272 207.28 93.0992 207.568 93.7352 208.144C94.3712 208.72 94.6892 209.608 94.6892 210.808V216.298C94.6892 216.766 94.4492 217 93.9692 217H92.4392ZM100.512 217.27C98.9278 217.27 97.6018 217 96.5338 216.46C96.3058 216.34 96.1918 216.22 96.1918 216.1C96.1918 216.028 96.2158 215.95 96.2638 215.866L96.8938 214.678C96.9658 214.57 97.0318 214.516 97.0918 214.516C97.1278 214.516 97.2298 214.552 97.3978 214.624C97.7458 214.804 98.1838 214.96 98.7118 215.092C99.2398 215.224 99.7258 215.29 100.17 215.29C100.686 215.29 101.076 215.23 101.34 215.11C101.604 214.978 101.736 214.756 101.736 214.444C101.736 214.228 101.652 214.042 101.484 213.886C101.316 213.73 101.076 213.592 100.764 213.472C100.464 213.34 99.9838 213.16 99.3238 212.932C98.3518 212.596 97.6378 212.218 97.1818 211.798C96.7258 211.366 96.4978 210.796 96.4978 210.088C96.4978 209.212 96.8698 208.528 97.6138 208.036C98.3578 207.532 99.3598 207.28 100.62 207.28C101.4 207.28 102.06 207.34 102.6 207.46C103.152 207.58 103.68 207.772 104.184 208.036C104.4 208.144 104.508 208.27 104.508 208.414C104.508 208.474 104.478 208.564 104.418 208.684L103.842 209.656C103.758 209.8 103.68 209.872 103.608 209.872C103.548 209.872 103.458 209.842 103.338 209.782C103.026 209.614 102.666 209.488 102.258 209.404C101.85 209.308 101.424 209.26 100.98 209.26C100.428 209.26 100.02 209.326 99.7558 209.458C99.5038 209.578 99.3778 209.794 99.3778 210.106C99.3778 210.394 99.5278 210.628 99.8278 210.808C100.14 210.976 100.674 211.198 101.43 211.474L102.096 211.708C102.756 211.948 103.272 212.188 103.644 212.428C104.016 212.656 104.286 212.932 104.454 213.256C104.622 213.568 104.706 213.964 104.706 214.444C104.706 215.296 104.34 215.98 103.608 216.496C102.888 217.012 101.856 217.27 100.512 217.27ZM106.995 217C106.695 217 106.479 216.94 106.347 216.82C106.227 216.688 106.167 216.49 106.167 216.226V208.252C106.167 207.784 106.395 207.55 106.851 207.55H108.093C108.261 207.55 108.387 207.586 108.471 207.658C108.555 207.718 108.603 207.826 108.615 207.982L108.651 208.558C109.419 207.706 110.529 207.28 111.981 207.28C113.049 207.28 113.907 207.568 114.555 208.144C115.203 208.72 115.527 209.566 115.527 210.682V216.226C115.527 216.49 115.461 216.688 115.329 216.82C115.209 216.94 115.005 217 114.717 217H113.367C113.067 217 112.851 216.94 112.719 216.82C112.599 216.688 112.539 216.49 112.539 216.226V210.772C112.539 210.28 112.413 209.92 112.161 209.692C111.921 209.464 111.549 209.35 111.045 209.35C110.469 209.35 110.007 209.494 109.659 209.782C109.311 210.07 109.137 210.424 109.137 210.844V216.226C109.137 216.49 109.077 216.688 108.957 216.82C108.837 216.94 108.627 217 108.327 217H106.995ZM113.998 206.524C113.314 206.524 112.762 206.32 112.342 205.912C111.91 205.492 111.694 204.952 111.694 204.292C111.694 203.632 111.91 203.092 112.342 202.672C112.762 202.252 113.314 202.042 113.998 202.042C114.682 202.042 115.24 202.252 115.672 202.672C116.104 203.092 116.32 203.632 116.32 204.292C116.32 204.952 116.104 205.492 115.672 205.912C115.24 206.32 114.682 206.524 113.998 206.524ZM113.998 205.138C114.238 205.138 114.442 205.06 114.61 204.904C114.766 204.736 114.844 204.532 114.844 204.292C114.844 204.064 114.766 203.872 114.61 203.716C114.442 203.548 114.238 203.464 113.998 203.464C113.758 203.464 113.554 203.548 113.386 203.716C113.218 203.872 113.134 204.064 113.134 204.292C113.134 204.532 113.218 204.736 113.386 204.904C113.554 205.06 113.758 205.138 113.998 205.138ZM121.162 217C120.682 217 120.442 216.766 120.442 216.298V210.97C120.442 210.406 120.34 210.01 120.136 209.782C119.932 209.542 119.572 209.422 119.056 209.422C118.504 209.422 117.982 209.554 117.49 209.818C117.37 209.878 117.28 209.908 117.22 209.908C117.1 209.908 117.022 209.836 116.986 209.692L116.59 208.306L116.554 208.09C116.554 207.982 116.626 207.898 116.77 207.838C117.55 207.466 118.474 207.28 119.542 207.28C120.85 207.28 121.822 207.568 122.458 208.144C123.094 208.72 123.412 209.608 123.412 210.808V216.298C123.412 216.766 123.172 217 122.692 217H121.162ZM126.39 217C125.958 217 125.664 216.916 125.508 216.748C125.352 216.568 125.274 216.28 125.274 215.884V208.342C125.274 208.054 125.346 207.85 125.49 207.73C125.634 207.61 125.874 207.55 126.21 207.55H127.308C127.644 207.55 127.884 207.61 128.028 207.73C128.172 207.85 128.244 208.054 128.244 208.342V214.318C128.244 214.498 128.268 214.624 128.316 214.696C128.376 214.756 128.478 214.786 128.622 214.786H128.928C129.144 214.786 129.294 214.834 129.378 214.93C129.462 215.014 129.504 215.158 129.504 215.362V216.424C129.504 216.676 129.444 216.838 129.324 216.91C129.204 216.97 128.952 217 128.568 217H126.39ZM131.448 217C131.016 217 130.722 216.916 130.566 216.748C130.41 216.568 130.332 216.28 130.332 215.884V208.342C130.332 208.054 130.404 207.85 130.548 207.73C130.692 207.61 130.932 207.55 131.268 207.55H132.366C132.702 207.55 132.942 207.61 133.086 207.73C133.23 207.85 133.302 208.054 133.302 208.342V214.318C133.302 214.498 133.326 214.624 133.374 214.696C133.434 214.756 133.536 214.786 133.68 214.786H133.986C134.202 214.786 134.352 214.834 134.436 214.93C134.52 215.014 134.562 215.158 134.562 215.362V216.424C134.562 216.676 134.502 216.838 134.382 216.91C134.262 216.97 134.01 217 133.626 217H131.448ZM140.802 217.27C139.218 217.27 138.024 216.946 137.22 216.298C136.428 215.65 136.032 214.726 136.032 213.526V208.342C136.032 208.078 136.092 207.88 136.212 207.748C136.344 207.616 136.554 207.55 136.842 207.55H138.192C138.492 207.55 138.702 207.616 138.822 207.748C138.942 207.868 139.002 208.066 139.002 208.342V213.544C139.002 214.084 139.152 214.486 139.452 214.75C139.752 215.002 140.202 215.128 140.802 215.128C141.402 215.128 141.846 215.002 142.134 214.75C142.434 214.486 142.584 214.084 142.584 213.544V208.342C142.584 208.078 142.644 207.88 142.764 207.748C142.896 207.616 143.106 207.55 143.394 207.55H144.744C145.044 207.55 145.254 207.616 145.374 207.748C145.506 207.88 145.572 208.078 145.572 208.342V213.526C145.572 214.726 145.17 215.65 144.366 216.298C143.574 216.946 142.386 217.27 140.802 217.27ZM152.193 217.27C150.609 217.27 149.415 216.946 148.611 216.298C147.819 215.65 147.423 214.726 147.423 213.526V208.342C147.423 208.078 147.483 207.88 147.603 207.748C147.735 207.616 147.945 207.55 148.233 207.55H149.583C149.883 207.55 150.093 207.616 150.213 207.748C150.333 207.868 150.393 208.066 150.393 208.342V213.544C150.393 214.084 150.543 214.486 150.843 214.75C151.143 215.002 151.593 215.128 152.193 215.128C152.793 215.128 153.237 215.002 153.525 214.75C153.825 214.486 153.975 214.084 153.975 213.544V208.342C153.975 208.078 154.035 207.88 154.155 207.748C154.287 207.616 154.497 207.55 154.785 207.55H156.135C156.435 207.55 156.645 207.616 156.765 207.748C156.897 207.88 156.963 208.078 156.963 208.342V213.526C156.963 214.726 156.561 215.65 155.757 216.298C154.965 216.946 153.777 217.27 152.193 217.27ZM159.642 217C159.342 217 159.126 216.94 158.994 216.82C158.874 216.688 158.814 216.49 158.814 216.226V208.252C158.814 207.784 159.042 207.55 159.498 207.55H160.74C160.908 207.55 161.034 207.586 161.118 207.658C161.202 207.718 161.25 207.826 161.262 207.982L161.298 208.558C162.066 207.706 163.176 207.28 164.628 207.28C165.696 207.28 166.554 207.568 167.202 208.144C167.85 208.72 168.174 209.566 168.174 210.682V216.226C168.174 216.49 168.108 216.688 167.976 216.82C167.856 216.94 167.652 217 167.364 217H166.014C165.714 217 165.498 216.94 165.366 216.82C165.246 216.688 165.186 216.49 165.186 216.226V210.772C165.186 210.28 165.06 209.92 164.808 209.692C164.568 209.464 164.196 209.35 163.692 209.35C163.116 209.35 162.654 209.494 162.306 209.782C161.958 210.07 161.784 210.424 161.784 210.844V216.226C161.784 216.49 161.724 216.688 161.604 216.82C161.484 216.94 161.274 217 160.974 217H159.642ZM173.52 217.27C172.296 217.27 171.348 216.838 170.676 215.974C170.004 215.11 169.668 213.982 169.668 212.59C169.668 210.862 170.124 209.548 171.036 208.648C171.948 207.736 173.274 207.28 175.014 207.28C176.682 207.28 177.912 207.658 178.704 208.414C179.508 209.158 179.91 210.142 179.91 211.366V216.226C179.91 216.49 179.844 216.688 179.712 216.82C179.592 216.94 179.382 217 179.082 217H177.732C177.444 217 177.234 216.94 177.102 216.82C176.982 216.688 176.922 216.49 176.922 216.226V211.42C176.922 210.772 176.772 210.28 176.472 209.944C176.172 209.608 175.686 209.44 175.014 209.44C174.21 209.44 173.61 209.698 173.214 210.214C172.818 210.718 172.62 211.534 172.62 212.662C172.62 213.502 172.764 214.162 173.052 214.642C173.34 215.122 173.742 215.362 174.258 215.362C174.534 215.362 174.828 215.302 175.14 215.182C175.212 215.158 175.254 215.146 175.266 215.146C175.386 215.146 175.464 215.23 175.5 215.398L175.788 216.532C175.8 216.568 175.806 216.61 175.806 216.658C175.806 216.718 175.782 216.772 175.734 216.82C175.698 216.856 175.632 216.898 175.536 216.946C175.02 217.162 174.348 217.27 173.52 217.27ZM184.597 217.27C183.637 217.27 182.863 217.018 182.275 216.514C181.699 215.998 181.411 215.302 181.411 214.426C181.411 213.322 181.777 212.536 182.509 212.068C183.241 211.6 184.273 211.366 185.605 211.366H188.125V211.024C188.125 210.472 187.957 210.07 187.621 209.818C187.285 209.554 186.697 209.422 185.857 209.422C185.449 209.422 185.023 209.476 184.579 209.584C184.147 209.68 183.763 209.812 183.427 209.98C183.259 210.052 183.157 210.088 183.121 210.088C183.013 210.088 182.917 210.01 182.833 209.854L182.221 208.774C182.161 208.654 182.131 208.552 182.131 208.468C182.131 208.348 182.197 208.246 182.329 208.162C182.809 207.874 183.403 207.658 184.111 207.514C184.831 207.358 185.587 207.28 186.379 207.28C187.123 207.28 187.771 207.352 188.323 207.496C188.767 207.22 189.181 207.004 189.565 206.848C189.949 206.692 190.237 206.614 190.429 206.614C190.597 206.614 190.717 206.632 190.789 206.668C190.873 206.704 190.933 206.776 190.969 206.884L191.401 208.036C191.425 208.132 191.437 208.204 191.437 208.252C191.437 208.396 191.341 208.51 191.149 208.594L190.393 208.918C190.633 209.194 190.807 209.518 190.915 209.89C191.035 210.25 191.095 210.712 191.095 211.276V216.226C191.095 216.49 191.029 216.688 190.897 216.82C190.777 216.94 190.567 217 190.267 217H188.935C188.647 217 188.437 216.94 188.305 216.82C188.185 216.688 188.125 216.49 188.125 216.226V213.364H185.641C185.125 213.364 184.753 213.442 184.525 213.598C184.297 213.742 184.183 214.006 184.183 214.39C184.183 214.75 184.273 215.002 184.453 215.146C184.645 215.29 184.933 215.362 185.317 215.362C185.593 215.362 185.887 215.302 186.199 215.182C186.271 215.158 186.313 215.146 186.325 215.146C186.445 215.146 186.523 215.23 186.559 215.398L186.847 216.532C186.859 216.568 186.865 216.61 186.865 216.658C186.865 216.718 186.841 216.772 186.793 216.82C186.757 216.856 186.691 216.898 186.595 216.946C186.079 217.162 185.413 217.27 184.597 217.27ZM197.109 217.27C195.609 217.27 194.475 216.976 193.707 216.388C192.951 215.788 192.573 214.9 192.573 213.724V212.23C192.573 211.978 192.627 211.792 192.735 211.672C192.855 211.552 193.053 211.492 193.329 211.492H196.011C196.215 211.492 196.359 211.54 196.443 211.636C196.527 211.72 196.569 211.864 196.569 212.068V212.788C196.569 213.004 196.527 213.154 196.443 213.238C196.359 213.322 196.209 213.364 195.993 213.364H195.201V213.94C195.201 214.3 195.357 214.588 195.669 214.804C195.993 215.02 196.449 215.128 197.037 215.128C197.565 215.128 197.967 215.038 198.243 214.858C198.531 214.678 198.735 214.384 198.855 213.976C198.975 213.556 199.035 212.974 199.035 212.23C199.035 211.234 198.837 210.52 198.441 210.088C198.045 209.644 197.373 209.422 196.425 209.422C195.537 209.422 194.721 209.608 193.977 209.98C193.809 210.052 193.707 210.088 193.671 210.088C193.563 210.088 193.467 210.01 193.383 209.854L192.771 208.774C192.711 208.654 192.681 208.552 192.681 208.468C192.681 208.348 192.747 208.246 192.879 208.162C193.359 207.874 193.965 207.658 194.697 207.514C195.429 207.358 196.209 207.28 197.037 207.28C198.705 207.28 199.947 207.682 200.763 208.486C201.591 209.29 202.005 210.538 202.005 212.23C202.005 213.934 201.579 215.2 200.727 216.028C199.887 216.856 198.681 217.27 197.109 217.27ZM208.232 217.27C206.648 217.27 205.454 216.946 204.65 216.298C203.858 215.65 203.462 214.726 203.462 213.526V208.342C203.462 208.078 203.522 207.88 203.642 207.748C203.774 207.616 203.984 207.55 204.272 207.55H205.622C205.922 207.55 206.132 207.616 206.252 207.748C206.372 207.868 206.432 208.066 206.432 208.342V213.544C206.432 214.084 206.582 214.486 206.882 214.75C207.182 215.002 207.632 215.128 208.232 215.128C208.832 215.128 209.276 215.002 209.564 214.75C209.864 214.486 210.014 214.084 210.014 213.544V208.342C210.014 208.078 210.074 207.88 210.194 207.748C210.326 207.616 210.536 207.55 210.824 207.55H212.174C212.474 207.55 212.684 207.616 212.804 207.748C212.936 207.88 213.002 208.078 213.002 208.342V213.526C213.002 214.726 212.6 215.65 211.796 216.298C211.004 216.946 209.816 217.27 208.232 217.27ZM218.057 217.27C217.265 217.27 216.575 217.198 215.987 217.054C215.411 216.91 214.871 216.694 214.367 216.406C214.211 216.322 214.133 216.208 214.133 216.064C214.133 215.992 214.163 215.896 214.223 215.776L214.835 214.714C214.919 214.558 215.009 214.48 215.105 214.48C215.141 214.48 215.243 214.516 215.411 214.588C215.783 214.768 216.149 214.906 216.509 215.002C216.869 215.086 217.265 215.128 217.697 215.128C218.561 215.128 219.227 214.912 219.695 214.48C220.163 214.048 220.397 213.322 220.397 212.302C220.397 211.282 220.175 210.55 219.731 210.106C219.287 209.662 218.627 209.44 217.751 209.44C216.887 209.44 216.137 209.62 215.501 209.98C215.381 210.052 215.279 210.088 215.195 210.088C215.087 210.088 214.991 210.01 214.907 209.854L214.313 208.792C214.253 208.672 214.223 208.57 214.223 208.486C214.223 208.354 214.301 208.246 214.457 208.162C214.961 207.874 215.501 207.658 216.077 207.514C216.653 207.358 217.325 207.28 218.093 207.28C219.821 207.28 221.129 207.7 222.017 208.54C222.917 209.38 223.367 210.634 223.367 212.302C223.367 213.946 222.905 215.188 221.981 216.028C221.069 216.856 219.761 217.27 218.057 217.27ZM219.635 206.164C219.131 206.164 218.783 206.056 218.591 205.84C218.387 205.612 218.285 205.252 218.285 204.76V203.572C218.285 203.272 218.345 203.074 218.465 202.978C218.573 202.87 218.771 202.816 219.059 202.816H219.905C220.181 202.816 220.379 202.87 220.499 202.978C220.607 203.086 220.661 203.284 220.661 203.572V204.4C221.249 204.328 221.945 204.262 222.749 204.202C223.541 204.142 224.153 204.112 224.585 204.112C224.873 204.112 225.065 204.166 225.161 204.274C225.257 204.382 225.305 204.568 225.305 204.832V205.444C225.305 205.708 225.257 205.894 225.161 206.002C225.065 206.11 224.873 206.164 224.585 206.164H219.635ZM228.311 217.27C227.087 217.27 226.139 216.838 225.467 215.974C224.795 215.11 224.459 213.982 224.459 212.59C224.459 210.862 224.915 209.548 225.827 208.648C226.739 207.736 228.065 207.28 229.805 207.28C231.473 207.28 232.703 207.658 233.495 208.414C234.299 209.158 234.701 210.142 234.701 211.366V216.226C234.701 216.49 234.635 216.688 234.503 216.82C234.383 216.94 234.173 217 233.873 217H232.523C232.235 217 232.025 216.94 231.893 216.82C231.773 216.688 231.713 216.49 231.713 216.226V211.42C231.713 210.772 231.563 210.28 231.263 209.944C230.963 209.608 230.477 209.44 229.805 209.44C229.001 209.44 228.401 209.698 228.005 210.214C227.609 210.718 227.411 211.534 227.411 212.662C227.411 213.502 227.555 214.162 227.843 214.642C228.131 215.122 228.533 215.362 229.049 215.362C229.325 215.362 229.619 215.302 229.931 215.182C230.003 215.158 230.045 215.146 230.057 215.146C230.177 215.146 230.255 215.23 230.291 215.398L230.579 216.532C230.591 216.568 230.597 216.61 230.597 216.658C230.597 216.718 230.573 216.772 230.525 216.82C230.489 216.856 230.423 216.898 230.327 216.946C229.811 217.162 229.139 217.27 228.311 217.27ZM240.522 217.27C238.938 217.27 237.612 217 236.544 216.46C236.316 216.34 236.202 216.22 236.202 216.1C236.202 216.028 236.226 215.95 236.274 215.866L236.904 214.678C236.976 214.57 237.042 214.516 237.102 214.516C237.138 214.516 237.24 214.552 237.408 214.624C237.756 214.804 238.194 214.96 238.722 215.092C239.25 215.224 239.736 215.29 240.18 215.29C240.696 215.29 241.086 215.23 241.35 215.11C241.614 214.978 241.746 214.756 241.746 214.444C241.746 214.228 241.662 214.042 241.494 213.886C241.326 213.73 241.086 213.592 240.774 213.472C240.474 213.34 239.994 213.16 239.334 212.932C238.362 212.596 237.648 212.218 237.192 211.798C236.736 211.366 236.508 210.796 236.508 210.088C236.508 209.212 236.88 208.528 237.624 208.036C238.368 207.532 239.37 207.28 240.63 207.28C241.41 207.28 242.07 207.34 242.61 207.46C243.162 207.58 243.69 207.772 244.194 208.036C244.41 208.144 244.518 208.27 244.518 208.414C244.518 208.474 244.488 208.564 244.428 208.684L243.852 209.656C243.768 209.8 243.69 209.872 243.618 209.872C243.558 209.872 243.468 209.842 243.348 209.782C243.036 209.614 242.676 209.488 242.268 209.404C241.86 209.308 241.434 209.26 240.99 209.26C240.438 209.26 240.03 209.326 239.766 209.458C239.514 209.578 239.388 209.794 239.388 210.106C239.388 210.394 239.538 210.628 239.838 210.808C240.15 210.976 240.684 211.198 241.44 211.474L242.106 211.708C242.766 211.948 243.282 212.188 243.654 212.428C244.026 212.656 244.296 212.932 244.464 213.256C244.632 213.568 244.716 213.964 244.716 214.444C244.716 215.296 244.35 215.98 243.618 216.496C242.898 217.012 241.866 217.27 240.522 217.27ZM247.167 211.78C246.663 211.78 246.309 211.678 246.105 211.474C245.913 211.258 245.817 210.916 245.817 210.448V209.206C245.817 208.93 245.871 208.744 245.979 208.648C246.087 208.54 246.273 208.486 246.537 208.486H247.401C247.665 208.486 247.851 208.54 247.959 208.648C248.067 208.744 248.121 208.936 248.121 209.224V209.98C249.057 209.788 249.771 209.692 250.263 209.692C250.527 209.692 250.701 209.74 250.785 209.836C250.881 209.92 250.929 210.094 250.929 210.358V211.132C250.929 211.372 250.875 211.54 250.767 211.636C250.671 211.732 250.485 211.78 250.209 211.78H247.167ZM247.167 216.46C246.663 216.46 246.309 216.358 246.105 216.154C245.913 215.938 245.817 215.596 245.817 215.128V213.886C245.817 213.61 245.871 213.424 245.979 213.328C246.087 213.22 246.273 213.166 246.537 213.166H247.401C247.665 213.166 247.851 213.22 247.959 213.328C248.067 213.424 248.121 213.616 248.121 213.904V214.66C249.057 214.468 249.771 214.372 250.263 214.372C250.527 214.372 250.701 214.42 250.785 214.516C250.881 214.6 250.929 214.774 250.929 215.038V215.812C250.929 216.052 250.875 216.22 250.767 216.316C250.671 216.412 250.485 216.46 250.209 216.46H247.167ZM255.891 217.27C254.667 217.27 253.719 216.838 253.047 215.974C252.375 215.11 252.039 213.982 252.039 212.59C252.039 210.862 252.495 209.548 253.407 208.648C254.319 207.736 255.645 207.28 257.385 207.28C259.053 207.28 260.283 207.658 261.075 208.414C261.879 209.158 262.281 210.142 262.281 211.366V216.226C262.281 216.49 262.215 216.688 262.083 216.82C261.963 216.94 261.753 217 261.453 217H260.103C259.815 217 259.605 216.94 259.473 216.82C259.353 216.688 259.293 216.49 259.293 216.226V211.42C259.293 210.772 259.143 210.28 258.843 209.944C258.543 209.608 258.057 209.44 257.385 209.44C256.581 209.44 255.981 209.698 255.585 210.214C255.189 210.718 254.991 211.534 254.991 212.662C254.991 213.502 255.135 214.162 255.423 214.642C255.711 215.122 256.113 215.362 256.629 215.362C256.905 215.362 257.199 215.302 257.511 215.182C257.583 215.158 257.625 215.146 257.637 215.146C257.757 215.146 257.835 215.23 257.871 215.398L258.159 216.532C258.171 216.568 258.177 216.61 258.177 216.658C258.177 216.718 258.153 216.772 258.105 216.82C258.069 216.856 258.003 216.898 257.907 216.946C257.391 217.162 256.719 217.27 255.891 217.27ZM258.958 206.164C258.454 206.164 258.106 206.056 257.914 205.84C257.71 205.612 257.608 205.252 257.608 204.76V203.572C257.608 203.272 257.668 203.074 257.788 202.978C257.896 202.87 258.094 202.816 258.382 202.816H259.228C259.504 202.816 259.702 202.87 259.822 202.978C259.93 203.086 259.984 203.284 259.984 203.572V204.4C260.572 204.328 261.268 204.262 262.072 204.202C262.864 204.142 263.476 204.112 263.908 204.112C264.196 204.112 264.388 204.166 264.484 204.274C264.58 204.382 264.628 204.568 264.628 204.832V205.444C264.628 205.708 264.58 205.894 264.484 206.002C264.388 206.11 264.196 206.164 263.908 206.164H258.958ZM268.912 217.27C267.328 217.27 266.134 216.946 265.33 216.298C264.538 215.65 264.142 214.726 264.142 213.526V208.342C264.142 208.078 264.202 207.88 264.322 207.748C264.454 207.616 264.664 207.55 264.952 207.55H266.302C266.602 207.55 266.812 207.616 266.932 207.748C267.052 207.868 267.112 208.066 267.112 208.342V213.544C267.112 214.084 267.262 214.486 267.562 214.75C267.862 215.002 268.312 215.128 268.912 215.128C269.512 215.128 269.956 215.002 270.244 214.75C270.544 214.486 270.694 214.084 270.694 213.544V208.342C270.694 208.078 270.754 207.88 270.874 207.748C271.006 207.616 271.216 207.55 271.504 207.55H272.854C273.154 207.55 273.364 207.616 273.484 207.748C273.616 207.88 273.682 208.078 273.682 208.342V213.526C273.682 214.726 273.28 215.65 272.476 216.298C271.684 216.946 270.496 217.27 268.912 217.27ZM38.7739 245C38.4859 245 38.2759 244.94 38.1439 244.82C38.0239 244.688 37.9639 244.49 37.9639 244.226V239.06C37.9639 237.872 38.3659 236.948 39.1699 236.288C39.9859 235.616 41.1499 235.28 42.6619 235.28C44.1739 235.28 45.3379 235.616 46.1539 236.288C46.9699 236.948 47.3779 237.872 47.3779 239.06V244.226C47.3779 244.49 47.3119 244.688 47.1799 244.82C47.0599 244.94 46.8499 245 46.5499 245H45.1999C44.9119 245 44.7019 244.94 44.5699 244.82C44.4499 244.688 44.3899 244.49 44.3899 244.226V239.078C44.3899 237.974 43.8139 237.422 42.6619 237.422C41.5099 237.422 40.9339 237.974 40.9339 239.078V240.608C41.2819 240.152 41.7439 239.924 42.3199 239.924H42.9499C43.0819 239.924 43.1719 239.954 43.2199 240.014C43.2799 240.062 43.3099 240.152 43.3099 240.284V241.67C43.3099 241.826 43.2799 241.94 43.2199 242.012C43.1599 242.072 43.0639 242.102 42.9319 242.102H42.2299C41.8459 242.102 41.5339 242.252 41.2939 242.552C41.0539 242.852 40.9339 243.218 40.9339 243.65V244.226C40.9339 244.49 40.8739 244.688 40.7539 244.82C40.6339 244.94 40.4239 245 40.1239 245H38.7739ZM52.4355 245.27C51.6435 245.27 50.9535 245.198 50.3655 245.054C49.7895 244.91 49.2495 244.694 48.7455 244.406C48.5895 244.322 48.5115 244.208 48.5115 244.064C48.5115 243.992 48.5415 243.896 48.6015 243.776L49.2135 242.714C49.2975 242.558 49.3875 242.48 49.4835 242.48C49.5195 242.48 49.6215 242.516 49.7895 242.588C50.1615 242.768 50.5275 242.906 50.8875 243.002C51.2475 243.086 51.6435 243.128 52.0755 243.128C52.9395 243.128 53.6055 242.912 54.0735 242.48C54.5415 242.048 54.7755 241.322 54.7755 240.302C54.7755 239.282 54.5535 238.55 54.1095 238.106C53.6655 237.662 53.0055 237.44 52.1295 237.44C51.2655 237.44 50.5155 237.62 49.8795 237.98C49.7595 238.052 49.6575 238.088 49.5735 238.088C49.4655 238.088 49.3695 238.01 49.2855 237.854L48.6915 236.792C48.6315 236.672 48.6015 236.57 48.6015 236.486C48.6015 236.354 48.6795 236.246 48.8355 236.162C49.3395 235.874 49.8795 235.658 50.4555 235.514C51.0315 235.358 51.7035 235.28 52.4715 235.28C54.1995 235.28 55.5075 235.7 56.3955 236.54C57.2955 237.38 57.7455 238.634 57.7455 240.302C57.7455 241.946 57.2835 243.188 56.3595 244.028C55.4475 244.856 54.1395 245.27 52.4355 245.27ZM62.9783 245C62.4983 245 62.2583 244.766 62.2583 244.298V238.97C62.2583 238.406 62.1563 238.01 61.9523 237.782C61.7483 237.542 61.3883 237.422 60.8723 237.422C60.3203 237.422 59.7983 237.554 59.3063 237.818C59.1863 237.878 59.0963 237.908 59.0363 237.908C58.9163 237.908 58.8383 237.836 58.8023 237.692L58.4063 236.306L58.3703 236.09C58.3703 235.982 58.4423 235.898 58.5863 235.838C59.3663 235.466 60.2903 235.28 61.3583 235.28C62.6663 235.28 63.6383 235.568 64.2743 236.144C64.9103 236.72 65.2283 237.608 65.2283 238.808V244.298C65.2283 244.766 64.9883 245 64.5083 245H62.9783ZM72.9049 245.27C71.4529 245.27 70.3429 244.844 69.5749 243.992L69.5389 244.586C69.5269 244.862 69.3529 245 69.0169 245H67.7749C67.3189 245 67.0909 244.766 67.0909 244.298V236.342C67.0909 236.078 67.1509 235.88 67.2709 235.748C67.4029 235.616 67.6189 235.55 67.9189 235.55H69.2509C69.5509 235.55 69.7609 235.616 69.8809 235.748C70.0009 235.868 70.0609 236.066 70.0609 236.342V241.724C70.0609 242.12 70.2469 242.468 70.6189 242.768C71.0029 243.056 71.4529 243.2 71.9689 243.2C72.4729 243.2 72.8449 243.086 73.0849 242.858C73.3369 242.63 73.4629 242.276 73.4629 241.796V236.342C73.4629 236.078 73.5229 235.88 73.6429 235.748C73.7749 235.616 73.9909 235.55 74.2909 235.55H75.6409C75.9289 235.55 76.1329 235.616 76.2529 235.748C76.3849 235.88 76.4509 236.078 76.4509 236.342V241.886C76.4509 242.99 76.1269 243.83 75.4789 244.406C74.8309 244.982 73.9729 245.27 72.9049 245.27ZM79.4217 245C78.9897 245 78.6957 244.916 78.5397 244.748C78.3837 244.568 78.3057 244.28 78.3057 243.884V236.342C78.3057 236.054 78.3777 235.85 78.5217 235.73C78.6657 235.61 78.9057 235.55 79.2417 235.55H80.3397C80.6757 235.55 80.9157 235.61 81.0597 235.73C81.2037 235.85 81.2757 236.054 81.2757 236.342V242.318C81.2757 242.498 81.2997 242.624 81.3477 242.696C81.4077 242.756 81.5097 242.786 81.6537 242.786H81.9597C82.1757 242.786 82.3257 242.834 82.4097 242.93C82.4937 243.014 82.5357 243.158 82.5357 243.362V244.424C82.5357 244.676 82.4757 244.838 82.3557 244.91C82.2357 244.97 81.9837 245 81.5997 245H79.4217ZM84.8286 245C84.5406 245 84.3306 244.94 84.1986 244.82C84.0786 244.688 84.0186 244.49 84.0186 244.226V239.06C84.0186 237.872 84.4206 236.948 85.2246 236.288C86.0406 235.616 87.2046 235.28 88.7166 235.28C90.2286 235.28 91.3926 235.616 92.2086 236.288C93.0246 236.948 93.4326 237.872 93.4326 239.06V244.226C93.4326 244.49 93.3666 244.688 93.2346 244.82C93.1146 244.94 92.9046 245 92.6046 245H91.2546C90.9666 245 90.7566 244.94 90.6246 244.82C90.5046 244.688 90.4446 244.49 90.4446 244.226V239.078C90.4446 237.974 89.8686 237.422 88.7166 237.422C87.5646 237.422 86.9886 237.974 86.9886 239.078V240.608C87.3366 240.152 87.7986 239.924 88.3746 239.924H89.0046C89.1366 239.924 89.2266 239.954 89.2746 240.014C89.3346 240.062 89.3646 240.152 89.3646 240.284V241.67C89.3646 241.826 89.3346 241.94 89.2746 242.012C89.2146 242.072 89.1186 242.102 88.9866 242.102H88.2846C87.9006 242.102 87.5886 242.252 87.3486 242.552C87.1086 242.852 86.9886 243.218 86.9886 243.65V244.226C86.9886 244.49 86.9286 244.688 86.8086 244.82C86.6886 244.94 86.4786 245 86.1786 245H84.8286ZM99.2462 245.27C97.6622 245.27 96.3362 245 95.2682 244.46C95.0402 244.34 94.9262 244.22 94.9262 244.1C94.9262 244.028 94.9502 243.95 94.9982 243.866L95.6282 242.678C95.7002 242.57 95.7662 242.516 95.8262 242.516C95.8622 242.516 95.9642 242.552 96.1322 242.624C96.4802 242.804 96.9182 242.96 97.4462 243.092C97.9742 243.224 98.4602 243.29 98.9042 243.29C99.4202 243.29 99.8102 243.23 100.074 243.11C100.338 242.978 100.47 242.756 100.47 242.444C100.47 242.228 100.386 242.042 100.218 241.886C100.05 241.73 99.8102 241.592 99.4982 241.472C99.1982 241.34 98.7182 241.16 98.0582 240.932C97.0862 240.596 96.3722 240.218 95.9162 239.798C95.4602 239.366 95.2322 238.796 95.2322 238.088C95.2322 237.212 95.6042 236.528 96.3482 236.036C97.0922 235.532 98.0942 235.28 99.3542 235.28C100.134 235.28 100.794 235.34 101.334 235.46C101.886 235.58 102.414 235.772 102.918 236.036C103.134 236.144 103.242 236.27 103.242 236.414C103.242 236.474 103.212 236.564 103.152 236.684L102.576 237.656C102.492 237.8 102.414 237.872 102.342 237.872C102.282 237.872 102.192 237.842 102.072 237.782C101.76 237.614 101.4 237.488 100.992 237.404C100.584 237.308 100.158 237.26 99.7142 237.26C99.1622 237.26 98.7542 237.326 98.4902 237.458C98.2382 237.578 98.1122 237.794 98.1122 238.106C98.1122 238.394 98.2622 238.628 98.5622 238.808C98.8742 238.976 99.4082 239.198 100.164 239.474L100.83 239.708C101.49 239.948 102.006 240.188 102.378 240.428C102.75 240.656 103.02 240.932 103.188 241.256C103.356 241.568 103.44 241.964 103.44 242.444C103.44 243.296 103.074 243.98 102.342 244.496C101.622 245.012 100.59 245.27 99.2462 245.27ZM95.7034 234.164C95.4154 234.164 95.2174 234.11 95.1094 234.002C95.0014 233.882 94.9474 233.684 94.9474 233.408V232.85C94.9474 232.574 95.0014 232.376 95.1094 232.256C95.2174 232.136 95.4154 232.076 95.7034 232.076H100.671V231.032C100.671 230.768 100.731 230.588 100.851 230.492C100.959 230.396 101.133 230.348 101.373 230.348H102.345C102.585 230.348 102.765 230.396 102.885 230.492C102.993 230.588 103.047 230.768 103.047 231.032V233.21C103.047 233.57 102.987 233.822 102.867 233.966C102.735 234.098 102.483 234.164 102.111 234.164H95.7034ZM109.293 245.27C107.853 245.27 106.701 245.012 105.837 244.496C104.973 243.968 104.541 243.188 104.541 242.156C104.541 241.052 104.979 240.32 105.855 239.96C105.435 239.732 105.123 239.45 104.919 239.114C104.715 238.778 104.613 238.358 104.613 237.854C104.613 237.386 104.733 236.954 104.973 236.558C105.225 236.162 105.573 235.85 106.017 235.622C106.473 235.394 106.983 235.28 107.547 235.28C108.375 235.28 109.059 235.43 109.599 235.73C109.743 235.814 109.815 235.916 109.815 236.036C109.815 236.072 109.803 236.138 109.779 236.234L109.455 237.188C109.395 237.32 109.317 237.386 109.221 237.386C109.173 237.386 109.119 237.368 109.059 237.332C108.939 237.26 108.831 237.212 108.735 237.188C108.639 237.152 108.519 237.134 108.375 237.134C108.087 237.134 107.859 237.224 107.691 237.404C107.535 237.572 107.457 237.806 107.457 238.106C107.457 238.466 107.559 238.73 107.763 238.898C107.967 239.066 108.285 239.15 108.717 239.15H109.095C109.227 239.15 109.323 239.18 109.383 239.24C109.443 239.3 109.473 239.396 109.473 239.528V240.428C109.473 240.704 109.335 240.842 109.059 240.842H108.753C108.297 240.842 107.967 240.932 107.763 241.112C107.559 241.28 107.457 241.568 107.457 241.976C107.457 242.744 108.069 243.128 109.293 243.128C109.965 243.128 110.451 242.96 110.751 242.624C111.051 242.288 111.201 241.754 111.201 241.022V236.342C111.201 236.078 111.261 235.88 111.381 235.748C111.513 235.616 111.723 235.55 112.011 235.55H113.307C113.607 235.55 113.817 235.616 113.937 235.748C114.069 235.88 114.135 236.078 114.135 236.342V241.022C114.135 243.854 112.521 245.27 109.293 245.27ZM119.485 245.27C118.261 245.27 117.313 244.838 116.641 243.974C115.969 243.11 115.633 241.982 115.633 240.59C115.633 238.862 116.089 237.548 117.001 236.648C117.913 235.736 119.239 235.28 120.979 235.28C122.647 235.28 123.877 235.658 124.669 236.414C125.473 237.158 125.875 238.142 125.875 239.366V244.226C125.875 244.49 125.809 244.688 125.677 244.82C125.557 244.94 125.347 245 125.047 245H123.697C123.409 245 123.199 244.94 123.067 244.82C122.947 244.688 122.887 244.49 122.887 244.226V239.42C122.887 238.772 122.737 238.28 122.437 237.944C122.137 237.608 121.651 237.44 120.979 237.44C120.175 237.44 119.575 237.698 119.179 238.214C118.783 238.718 118.585 239.534 118.585 240.662C118.585 241.502 118.729 242.162 119.017 242.642C119.305 243.122 119.707 243.362 120.223 243.362C120.499 243.362 120.793 243.302 121.105 243.182C121.177 243.158 121.219 243.146 121.231 243.146C121.351 243.146 121.429 243.23 121.465 243.398L121.753 244.532C121.765 244.568 121.771 244.61 121.771 244.658C121.771 244.718 121.747 244.772 121.699 244.82C121.663 244.856 121.597 244.898 121.501 244.946C120.985 245.162 120.313 245.27 119.485 245.27ZM128.563 245C128.263 245 128.047 244.94 127.915 244.82C127.795 244.688 127.735 244.49 127.735 244.226V236.252C127.735 235.784 127.963 235.55 128.419 235.55H129.661C129.829 235.55 129.955 235.586 130.039 235.658C130.123 235.718 130.171 235.826 130.183 235.982L130.219 236.558C130.987 235.706 132.097 235.28 133.549 235.28C134.617 235.28 135.475 235.568 136.123 236.144C136.771 236.72 137.095 237.566 137.095 238.682V244.226C137.095 244.49 137.029 244.688 136.897 244.82C136.777 244.94 136.573 245 136.285 245H134.935C134.635 245 134.419 244.94 134.287 244.82C134.167 244.688 134.107 244.49 134.107 244.226V238.772C134.107 238.28 133.981 237.92 133.729 237.692C133.489 237.464 133.117 237.35 132.613 237.35C132.037 237.35 131.575 237.494 131.227 237.782C130.879 238.07 130.705 238.424 130.705 238.844V244.226C130.705 244.49 130.645 244.688 130.525 244.82C130.405 244.94 130.195 245 129.895 245H128.563ZM135.566 234.524C134.882 234.524 134.33 234.32 133.91 233.912C133.478 233.492 133.262 232.952 133.262 232.292C133.262 231.632 133.478 231.092 133.91 230.672C134.33 230.252 134.882 230.042 135.566 230.042C136.25 230.042 136.808 230.252 137.24 230.672C137.672 231.092 137.888 231.632 137.888 232.292C137.888 232.952 137.672 233.492 137.24 233.912C136.808 234.32 136.25 234.524 135.566 234.524ZM135.566 233.138C135.806 233.138 136.01 233.06 136.178 232.904C136.334 232.736 136.412 232.532 136.412 232.292C136.412 232.064 136.334 231.872 136.178 231.716C136.01 231.548 135.806 231.464 135.566 231.464C135.326 231.464 135.122 231.548 134.954 231.716C134.786 231.872 134.702 232.064 134.702 232.292C134.702 232.532 134.786 232.736 134.954 232.904C135.122 233.06 135.326 233.138 135.566 233.138ZM142.73 245C142.25 245 142.01 244.766 142.01 244.298V238.97C142.01 238.406 141.908 238.01 141.704 237.782C141.5 237.542 141.14 237.422 140.624 237.422C140.072 237.422 139.55 237.554 139.058 237.818C138.938 237.878 138.848 237.908 138.788 237.908C138.668 237.908 138.59 237.836 138.554 237.692L138.158 236.306L138.122 236.09C138.122 235.982 138.194 235.898 138.338 235.838C139.118 235.466 140.042 235.28 141.11 235.28C142.418 235.28 143.39 235.568 144.026 236.144C144.662 236.72 144.98 237.608 144.98 238.808V244.298C144.98 244.766 144.74 245 144.26 245H142.73ZM148.913 245C148.481 245 148.193 244.916 148.049 244.748C147.905 244.58 147.833 244.292 147.833 243.884V239.078C147.833 238.55 147.941 238.094 148.157 237.71C148.385 237.314 148.709 236.876 149.129 236.396C149.489 235.976 149.753 235.634 149.921 235.37C150.089 235.094 150.173 234.782 150.173 234.434C150.173 233.846 149.849 233.552 149.201 233.552C148.421 233.552 148.031 233.984 148.031 234.848C148.031 234.968 148.007 235.052 147.959 235.1C147.911 235.136 147.821 235.154 147.689 235.154H145.835C145.667 235.154 145.583 235.052 145.583 234.848C145.583 233.84 145.907 233.03 146.555 232.418C147.203 231.806 148.121 231.5 149.309 231.5C150.521 231.5 151.439 231.74 152.063 232.22C152.687 232.688 152.999 233.384 152.999 234.308C152.999 234.8 152.903 235.226 152.711 235.586C152.519 235.934 152.237 236.336 151.865 236.792C151.517 237.212 151.253 237.59 151.073 237.926C150.893 238.25 150.803 238.622 150.803 239.042V242.372C150.803 242.516 150.827 242.624 150.875 242.696C150.923 242.756 151.013 242.786 151.145 242.786H151.577C151.781 242.786 151.925 242.834 152.009 242.93C152.093 243.014 152.135 243.158 152.135 243.362V244.424C152.135 244.64 152.093 244.79 152.009 244.874C151.925 244.958 151.775 245 151.559 245H148.913ZM154.737 245C154.449 245 154.239 244.94 154.107 244.82C153.987 244.688 153.927 244.49 153.927 244.226V236.342C153.927 236.078 153.987 235.88 154.107 235.748C154.239 235.616 154.449 235.55 154.737 235.55H156.069C156.369 235.55 156.579 235.616 156.699 235.748C156.831 235.88 156.897 236.078 156.897 236.342V238.412H158.805C159.237 238.412 159.531 238.304 159.687 238.088C159.843 237.872 159.921 237.554 159.921 237.134V236.342C159.921 236.078 159.981 235.88 160.101 235.748C160.233 235.616 160.443 235.55 160.731 235.55H162.081C162.381 235.55 162.591 235.616 162.711 235.748C162.843 235.88 162.909 236.078 162.909 236.342V237.206C162.909 238.394 162.477 239.138 161.613 239.438C162.069 239.606 162.399 239.888 162.603 240.284C162.807 240.68 162.909 241.142 162.909 241.67V244.226C162.909 244.49 162.843 244.688 162.711 244.82C162.591 244.94 162.381 245 162.081 245H160.731C160.443 245 160.233 244.94 160.101 244.82C159.981 244.688 159.921 244.49 159.921 244.226V241.832C159.921 241.424 159.837 241.118 159.669 240.914C159.513 240.71 159.243 240.608 158.859 240.608H156.897V244.226C156.897 244.49 156.831 244.688 156.699 244.82C156.579 244.94 156.369 245 156.069 245H154.737ZM158.815 234.164C158.491 234.164 158.269 234.104 158.149 233.984C158.029 233.852 157.969 233.636 157.969 233.336V232.526H157.177C156.913 232.526 156.733 232.472 156.637 232.364C156.541 232.244 156.493 232.064 156.493 231.824V231.248C156.493 231.008 156.541 230.834 156.637 230.726C156.733 230.606 156.913 230.546 157.177 230.546H159.427C159.715 230.546 159.907 230.606 160.003 230.726C160.099 230.834 160.147 231.038 160.147 231.338V232.328C161.491 232.208 162.463 232.148 163.063 232.148C163.291 232.148 163.441 232.19 163.513 232.274C163.585 232.358 163.621 232.502 163.621 232.706V233.462C163.621 233.726 163.573 233.912 163.477 234.02C163.381 234.116 163.201 234.164 162.937 234.164H158.815ZM168.715 245.27C167.131 245.27 165.805 245 164.737 244.46C164.509 244.34 164.395 244.22 164.395 244.1C164.395 244.028 164.419 243.95 164.467 243.866L165.097 242.678C165.169 242.57 165.235 242.516 165.295 242.516C165.331 242.516 165.433 242.552 165.601 242.624C165.949 242.804 166.387 242.96 166.915 243.092C167.443 243.224 167.929 243.29 168.373 243.29C168.889 243.29 169.279 243.23 169.543 243.11C169.807 242.978 169.939 242.756 169.939 242.444C169.939 242.228 169.855 242.042 169.687 241.886C169.519 241.73 169.279 241.592 168.967 241.472C168.667 241.34 168.187 241.16 167.527 240.932C166.555 240.596 165.841 240.218 165.385 239.798C164.929 239.366 164.701 238.796 164.701 238.088C164.701 237.212 165.073 236.528 165.817 236.036C166.561 235.532 167.563 235.28 168.823 235.28C169.603 235.28 170.263 235.34 170.803 235.46C171.355 235.58 171.883 235.772 172.387 236.036C172.603 236.144 172.711 236.27 172.711 236.414C172.711 236.474 172.681 236.564 172.621 236.684L172.045 237.656C171.961 237.8 171.883 237.872 171.811 237.872C171.751 237.872 171.661 237.842 171.541 237.782C171.229 237.614 170.869 237.488 170.461 237.404C170.053 237.308 169.627 237.26 169.183 237.26C168.631 237.26 168.223 237.326 167.959 237.458C167.707 237.578 167.581 237.794 167.581 238.106C167.581 238.394 167.731 238.628 168.031 238.808C168.343 238.976 168.877 239.198 169.633 239.474L170.299 239.708C170.959 239.948 171.475 240.188 171.847 240.428C172.219 240.656 172.489 240.932 172.657 241.256C172.825 241.568 172.909 241.964 172.909 242.444C172.909 243.296 172.543 243.98 171.811 244.496C171.091 245.012 170.059 245.27 168.715 245.27ZM169.708 250.184C168.832 250.184 168.178 250.04 167.746 249.752C167.302 249.476 167.08 249.038 167.08 248.438V247.862H166.414C166.198 247.862 166.054 247.82 165.982 247.736C165.898 247.652 165.856 247.502 165.856 247.286V246.476C165.856 246.272 165.898 246.122 165.982 246.026C166.054 245.942 166.198 245.9 166.414 245.9H168.232C168.52 245.9 168.724 245.96 168.844 246.08C168.964 246.212 169.024 246.41 169.024 246.674V247.898C169.024 248.21 169.252 248.366 169.708 248.366C170.164 248.366 170.392 248.21 170.392 247.898V246.314C170.392 246.038 170.53 245.9 170.806 245.9H172.102C172.378 245.9 172.516 246.038 172.516 246.314V248.33C172.516 248.966 172.282 249.434 171.814 249.734C171.346 250.034 170.644 250.184 169.708 250.184ZM168.43 234.164C168.106 234.164 167.884 234.104 167.764 233.984C167.644 233.852 167.584 233.636 167.584 233.336V232.526H166.792C166.528 232.526 166.348 232.472 166.252 232.364C166.156 232.244 166.108 232.064 166.108 231.824V231.248C166.108 231.008 166.156 230.834 166.252 230.726C166.348 230.606 166.528 230.546 166.792 230.546H169.042C169.33 230.546 169.522 230.606 169.618 230.726C169.714 230.834 169.762 231.038 169.762 231.338V232.328C171.106 232.208 172.078 232.148 172.678 232.148C172.906 232.148 173.056 232.19 173.128 232.274C173.2 232.358 173.236 232.502 173.236 232.706V233.462C173.236 233.726 173.188 233.912 173.092 234.02C172.996 234.116 172.816 234.164 172.552 234.164H168.43ZM178.942 245.27C177.706 245.27 176.782 245.006 176.17 244.478C175.57 243.938 175.27 243.266 175.27 242.462V241.886H174.694C174.478 241.886 174.328 241.844 174.244 241.76C174.16 241.676 174.118 241.526 174.118 241.31V240.302C174.118 240.098 174.16 239.954 174.244 239.87C174.328 239.774 174.478 239.726 174.694 239.726H176.908C177.208 239.726 177.418 239.792 177.538 239.924C177.658 240.044 177.718 240.236 177.718 240.5V241.994C177.718 242.39 177.814 242.678 178.006 242.858C178.198 243.038 178.51 243.128 178.942 243.128C179.47 243.128 179.854 242.912 180.094 242.48C180.346 242.036 180.472 241.328 180.472 240.356C180.472 239.312 180.256 238.562 179.824 238.106C179.392 237.65 178.708 237.422 177.772 237.422C176.884 237.422 176.068 237.608 175.324 237.98C175.156 238.052 175.054 238.088 175.018 238.088C174.91 238.088 174.814 238.01 174.73 237.854L174.118 236.774C174.058 236.654 174.028 236.552 174.028 236.468C174.028 236.348 174.094 236.246 174.226 236.162C174.706 235.874 175.312 235.658 176.044 235.514C176.776 235.358 177.556 235.28 178.384 235.28C180.196 235.28 181.492 235.718 182.272 236.594C183.052 237.47 183.442 238.724 183.442 240.356C183.442 242.012 183.046 243.248 182.254 244.064C181.462 244.868 180.358 245.27 178.942 245.27ZM179.715 234.164C179.211 234.164 178.863 234.056 178.671 233.84C178.467 233.612 178.365 233.252 178.365 232.76V231.572C178.365 231.272 178.425 231.074 178.545 230.978C178.653 230.87 178.851 230.816 179.139 230.816H179.985C180.261 230.816 180.459 230.87 180.579 230.978C180.687 231.086 180.741 231.284 180.741 231.572V232.4C181.329 232.328 182.025 232.262 182.829 232.202C183.621 232.142 184.233 232.112 184.665 232.112C184.953 232.112 185.145 232.166 185.241 232.274C185.337 232.382 185.385 232.568 185.385 232.832V233.444C185.385 233.708 185.337 233.894 185.241 234.002C185.145 234.11 184.953 234.164 184.665 234.164H179.715ZM185.925 245C185.625 245 185.415 244.94 185.295 244.82C185.175 244.688 185.115 244.49 185.115 244.226V239.096L184.701 238.088C184.593 237.812 184.539 237.614 184.539 237.494C184.539 237.302 184.629 237.134 184.809 236.99C185.385 236.51 186.087 236.108 186.915 235.784C187.755 235.448 188.667 235.28 189.651 235.28C191.331 235.28 192.543 235.646 193.287 236.378C194.031 237.098 194.403 238.07 194.403 239.294V244.226C194.403 244.49 194.337 244.688 194.205 244.82C194.085 244.94 193.875 245 193.575 245H192.243C191.943 245 191.727 244.94 191.595 244.82C191.475 244.688 191.415 244.49 191.415 244.226V239.222C191.415 238.622 191.271 238.178 190.983 237.89C190.707 237.59 190.257 237.44 189.633 237.44C188.841 237.44 188.175 237.65 187.635 238.07L187.851 238.502C187.935 238.67 187.995 238.832 188.031 238.988C188.067 239.144 188.085 239.336 188.085 239.564V244.226C188.085 244.49 188.019 244.688 187.887 244.82C187.767 244.94 187.557 245 187.257 245H185.925ZM199.693 245.27C198.469 245.27 197.527 244.844 196.867 243.992C196.219 243.128 195.895 241.994 195.895 240.59C195.895 239.474 196.045 238.52 196.345 237.728C196.657 236.924 197.083 236.318 197.623 235.91C198.175 235.49 198.805 235.28 199.513 235.28C200.269 235.28 200.845 235.568 201.241 236.144C201.445 235.88 201.733 235.67 202.105 235.514C202.489 235.358 202.897 235.28 203.329 235.28C204.265 235.28 204.967 235.514 205.435 235.982C205.903 236.45 206.137 237.092 206.137 237.908V244.226C206.137 244.49 206.071 244.688 205.939 244.82C205.819 244.94 205.609 245 205.309 245H203.959C203.671 245 203.461 244.94 203.329 244.82C203.209 244.688 203.149 244.49 203.149 244.226V238.322C203.149 238.034 203.089 237.818 202.969 237.674C202.861 237.518 202.663 237.44 202.375 237.44C202.051 237.44 201.787 237.584 201.583 237.872C201.475 238.004 201.355 238.07 201.223 238.07C201.079 238.07 200.953 238.004 200.845 237.872C200.725 237.728 200.617 237.62 200.521 237.548C200.437 237.476 200.317 237.44 200.161 237.44C199.753 237.44 199.429 237.704 199.189 238.232C198.961 238.748 198.847 239.534 198.847 240.59C198.847 241.454 198.979 242.132 199.243 242.624C199.507 243.116 199.891 243.362 200.395 243.362C200.707 243.362 201.001 243.308 201.277 243.2C201.349 243.176 201.391 243.164 201.403 243.164C201.523 243.164 201.601 243.248 201.637 243.416L201.889 244.532C201.901 244.568 201.907 244.616 201.907 244.676C201.907 244.772 201.817 244.862 201.637 244.946C201.109 245.162 200.461 245.27 199.693 245.27ZM202.813 234.164C202.309 234.164 201.961 234.056 201.769 233.84C201.565 233.612 201.463 233.252 201.463 232.76V231.572C201.463 231.272 201.523 231.074 201.643 230.978C201.751 230.87 201.949 230.816 202.237 230.816H203.083C203.359 230.816 203.557 230.87 203.677 230.978C203.785 231.086 203.839 231.284 203.839 231.572V232.4C204.427 232.328 205.123 232.262 205.927 232.202C206.719 232.142 207.331 232.112 207.763 232.112C208.051 232.112 208.243 232.166 208.339 232.274C208.435 232.382 208.483 232.568 208.483 232.832V233.444C208.483 233.708 208.435 233.894 208.339 234.002C208.243 234.11 208.051 234.164 207.763 234.164H202.813ZM211.201 245.27C210.409 245.27 209.719 245.198 209.131 245.054C208.555 244.91 208.015 244.694 207.511 244.406C207.355 244.322 207.277 244.208 207.277 244.064C207.277 243.992 207.307 243.896 207.367 243.776L207.979 242.714C208.063 242.558 208.153 242.48 208.249 242.48C208.285 242.48 208.387 242.516 208.555 242.588C208.927 242.768 209.293 242.906 209.653 243.002C210.013 243.086 210.409 243.128 210.841 243.128C211.705 243.128 212.371 242.912 212.839 242.48C213.307 242.048 213.541 241.322 213.541 240.302C213.541 239.282 213.319 238.55 212.875 238.106C212.431 237.662 211.771 237.44 210.895 237.44C210.031 237.44 209.281 237.62 208.645 237.98C208.525 238.052 208.423 238.088 208.339 238.088C208.231 238.088 208.135 238.01 208.051 237.854L207.457 236.792C207.397 236.672 207.367 236.57 207.367 236.486C207.367 236.354 207.445 236.246 207.601 236.162C208.105 235.874 208.645 235.658 209.221 235.514C209.797 235.358 210.469 235.28 211.237 235.28C212.965 235.28 214.273 235.7 215.161 236.54C216.061 237.38 216.511 238.634 216.511 240.302C216.511 241.946 216.049 243.188 215.125 244.028C214.213 244.856 212.905 245.27 211.201 245.27ZM219.08 245C218.648 245 218.354 244.916 218.198 244.748C218.042 244.568 217.964 244.28 217.964 243.884V236.342C217.964 236.054 218.036 235.85 218.18 235.73C218.324 235.61 218.564 235.55 218.9 235.55H219.998C220.334 235.55 220.574 235.61 220.718 235.73C220.862 235.85 220.934 236.054 220.934 236.342V242.318C220.934 242.498 220.958 242.624 221.006 242.696C221.066 242.756 221.168 242.786 221.312 242.786H221.618C221.834 242.786 221.984 242.834 222.068 242.93C222.152 243.014 222.194 243.158 222.194 243.362V244.424C222.194 244.676 222.134 244.838 222.014 244.91C221.894 244.97 221.642 245 221.258 245H219.08ZM227.853 245.27C226.353 245.27 225.219 244.976 224.451 244.388C223.695 243.788 223.317 242.9 223.317 241.724V240.23C223.317 239.978 223.371 239.792 223.479 239.672C223.599 239.552 223.797 239.492 224.073 239.492H226.755C226.959 239.492 227.103 239.54 227.187 239.636C227.271 239.72 227.313 239.864 227.313 240.068V240.788C227.313 241.004 227.271 241.154 227.187 241.238C227.103 241.322 226.953 241.364 226.737 241.364H225.945V241.94C225.945 242.3 226.101 242.588 226.413 242.804C226.737 243.02 227.193 243.128 227.781 243.128C228.309 243.128 228.711 243.038 228.987 242.858C229.275 242.678 229.479 242.384 229.599 241.976C229.719 241.556 229.779 240.974 229.779 240.23C229.779 239.234 229.581 238.52 229.185 238.088C228.789 237.644 228.117 237.422 227.169 237.422C226.281 237.422 225.465 237.608 224.721 237.98C224.553 238.052 224.451 238.088 224.415 238.088C224.307 238.088 224.211 238.01 224.127 237.854L223.515 236.774C223.455 236.654 223.425 236.552 223.425 236.468C223.425 236.348 223.491 236.246 223.623 236.162C224.103 235.874 224.709 235.658 225.441 235.514C226.173 235.358 226.953 235.28 227.781 235.28C229.449 235.28 230.691 235.682 231.507 236.486C232.335 237.29 232.749 238.538 232.749 240.23C232.749 241.934 232.323 243.2 231.471 244.028C230.631 244.856 229.425 245.27 227.853 245.27ZM238.976 245.27C237.848 245.27 236.978 245.06 236.366 244.64C235.754 244.22 235.298 243.542 234.998 242.606L233.954 239.312C233.906 239.144 233.882 239.036 233.882 238.988C233.882 238.808 233.99 238.682 234.206 238.61L235.862 238.052C236.03 238.004 236.132 237.98 236.168 237.98C236.264 237.98 236.342 238.016 236.402 238.088C236.462 238.16 236.522 238.274 236.582 238.43L237.734 242.03C237.866 242.45 238.028 242.744 238.22 242.912C238.412 243.068 238.73 243.146 239.174 243.146C239.762 243.146 240.182 242.906 240.434 242.426C240.686 241.946 240.812 241.19 240.812 240.158C240.812 239.198 240.692 238.508 240.452 238.088C240.224 237.656 239.84 237.44 239.3 237.44C239.108 237.44 238.922 237.482 238.742 237.566C238.562 237.638 238.448 237.68 238.4 237.692C238.304 237.716 238.244 237.728 238.22 237.728C238.1 237.728 238.004 237.644 237.932 237.476L237.482 236.198C237.458 236.102 237.446 236.042 237.446 236.018C237.446 235.934 237.512 235.85 237.644 235.766C238.28 235.442 239.03 235.28 239.894 235.28C241.142 235.28 242.096 235.718 242.756 236.594C243.428 237.47 243.764 238.664 243.764 240.176C243.764 241.832 243.35 243.098 242.522 243.974C241.706 244.838 240.524 245.27 238.976 245.27ZM251.042 245.27C249.59 245.27 248.48 244.844 247.712 243.992L247.676 244.586C247.664 244.862 247.49 245 247.154 245H245.912C245.456 245 245.228 244.766 245.228 244.298V236.342C245.228 236.078 245.288 235.88 245.408 235.748C245.54 235.616 245.756 235.55 246.056 235.55H247.388C247.688 235.55 247.898 235.616 248.018 235.748C248.138 235.868 248.198 236.066 248.198 236.342V241.724C248.198 242.12 248.384 242.468 248.756 242.768C249.14 243.056 249.59 243.2 250.106 243.2C250.61 243.2 250.982 243.086 251.222 242.858C251.474 242.63 251.6 242.276 251.6 241.796V236.342C251.6 236.078 251.66 235.88 251.78 235.748C251.912 235.616 252.128 235.55 252.428 235.55H253.778C254.066 235.55 254.27 235.616 254.39 235.748C254.522 235.88 254.588 236.078 254.588 236.342V241.886C254.588 242.99 254.264 243.83 253.616 244.406C252.968 244.982 252.11 245.27 251.042 245.27ZM260.222 245C259.742 245 259.502 244.766 259.502 244.298V238.97C259.502 238.406 259.4 238.01 259.196 237.782C258.992 237.542 258.632 237.422 258.116 237.422C257.564 237.422 257.042 237.554 256.55 237.818C256.43 237.878 256.34 237.908 256.28 237.908C256.16 237.908 256.082 237.836 256.046 237.692L255.65 236.306L255.614 236.09C255.614 235.982 255.686 235.898 255.83 235.838C256.61 235.466 257.534 235.28 258.602 235.28C259.91 235.28 260.882 235.568 261.518 236.144C262.154 236.72 262.472 237.608 262.472 238.808V244.298C262.472 244.766 262.232 245 261.752 245H260.222ZM265.361 245C265.061 245 264.851 244.94 264.731 244.82C264.611 244.688 264.551 244.49 264.551 244.226V239.096L264.137 238.088C264.029 237.812 263.975 237.614 263.975 237.494C263.975 237.302 264.065 237.134 264.245 236.99C264.821 236.51 265.523 236.108 266.351 235.784C267.191 235.448 268.103 235.28 269.087 235.28C270.767 235.28 271.979 235.646 272.723 236.378C273.467 237.098 273.839 238.07 273.839 239.294V244.226C273.839 244.49 273.773 244.688 273.641 244.82C273.521 244.94 273.311 245 273.011 245H271.679C271.379 245 271.163 244.94 271.031 244.82C270.911 244.688 270.851 244.49 270.851 244.226V239.222C270.851 238.622 270.707 238.178 270.419 237.89C270.143 237.59 269.693 237.44 269.069 237.44C268.277 237.44 267.611 237.65 267.071 238.07L267.287 238.502C267.371 238.67 267.431 238.832 267.467 238.988C267.503 239.144 267.521 239.336 267.521 239.564V244.226C267.521 244.49 267.455 244.688 267.323 244.82C267.203 244.94 266.993 245 266.693 245H265.361ZM279.884 245.27C278.48 245.27 277.376 244.97 276.572 244.37C275.78 243.758 275.384 242.924 275.384 241.868V241.022C275.384 239.798 275.858 238.886 276.806 238.286V237.998C276.806 237.902 276.776 237.842 276.716 237.818C276.668 237.782 276.578 237.764 276.446 237.764H275.888C275.684 237.764 275.54 237.722 275.456 237.638C275.372 237.542 275.33 237.392 275.33 237.188V236.126C275.33 235.922 275.372 235.778 275.456 235.694C275.54 235.598 275.684 235.55 275.888 235.55H278.318C278.738 235.55 279.026 235.64 279.182 235.82C279.35 235.988 279.434 236.27 279.434 236.666V238.034C279.434 238.37 279.332 238.622 279.128 238.79C278.84 239.018 278.636 239.27 278.516 239.546C278.396 239.822 278.336 240.182 278.336 240.626V241.814C278.336 242.606 278.852 243.002 279.884 243.002C280.424 243.002 280.808 242.9 281.036 242.696C281.276 242.492 281.396 242.198 281.396 241.814V236.342C281.396 236.066 281.456 235.868 281.576 235.748C281.696 235.616 281.906 235.55 282.206 235.55H283.556C283.856 235.55 284.066 235.616 284.186 235.748C284.306 235.868 284.366 236.066 284.366 236.342V241.544C284.366 242.696 283.982 243.608 283.214 244.28C282.446 244.94 281.336 245.27 279.884 245.27ZM277.04 234.164C276.728 234.164 276.524 234.104 276.428 233.984C276.32 233.864 276.266 233.648 276.266 233.336V232.85C276.266 232.574 276.32 232.376 276.428 232.256C276.536 232.136 276.74 232.076 277.04 232.076H280.55C280.55 231.56 280.736 231.128 281.108 230.78C281.48 230.432 281.96 230.258 282.548 230.258C283.16 230.258 283.646 230.45 284.006 230.834C284.366 231.218 284.546 231.692 284.546 232.256C284.546 232.844 284.342 233.312 283.934 233.66C283.514 233.996 282.974 234.164 282.314 234.164H277.04ZM282.548 232.976C282.776 232.976 282.956 232.91 283.088 232.778C283.22 232.634 283.286 232.46 283.286 232.256C283.286 232.04 283.22 231.866 283.088 231.734C282.944 231.59 282.764 231.518 282.548 231.518C282.344 231.518 282.176 231.59 282.044 231.734C281.9 231.866 281.828 232.04 281.828 232.256C281.828 232.46 281.894 232.634 282.026 232.778C282.158 232.91 282.332 232.976 282.548 232.976ZM281.522 228.574C281.21 228.574 281.006 228.52 280.91 228.412C280.814 228.304 280.766 228.1 280.766 227.8V227.278H280.19C279.974 227.278 279.824 227.236 279.74 227.152C279.656 227.056 279.614 226.9 279.614 226.684V226.054C279.614 225.85 279.656 225.7 279.74 225.604C279.824 225.508 279.974 225.46 280.19 225.46H281.774C282.014 225.46 282.182 225.514 282.278 225.622C282.362 225.718 282.404 225.88 282.404 226.108V226.846L282.782 226.81C282.962 226.798 283.292 226.774 283.772 226.738C284.24 226.702 284.618 226.684 284.906 226.684C285.098 226.684 285.23 226.72 285.302 226.792C285.362 226.864 285.392 226.99 285.392 227.17V227.98C285.392 228.196 285.35 228.352 285.266 228.448C285.182 228.532 285.032 228.574 284.816 228.574H281.522ZM289.748 245.27C288.68 245.27 287.822 244.982 287.174 244.406C286.538 243.83 286.22 242.99 286.22 241.886V236.342C286.22 236.066 286.28 235.868 286.4 235.748C286.52 235.616 286.73 235.55 287.03 235.55H288.362C288.662 235.55 288.872 235.616 288.992 235.748C289.124 235.88 289.19 236.078 289.19 236.342V241.796C289.19 242.276 289.31 242.63 289.55 242.858C289.802 243.086 290.18 243.2 290.684 243.2C291.2 243.2 291.644 243.056 292.016 242.768C292.4 242.468 292.592 242.12 292.592 241.724V236.342C292.592 236.078 292.652 235.88 292.772 235.748C292.904 235.616 293.114 235.55 293.402 235.55H294.752C295.052 235.55 295.262 235.616 295.382 235.748C295.514 235.88 295.58 236.078 295.58 236.342V244.298C295.58 244.766 295.346 245 294.878 245H293.636C293.3 245 293.126 244.862 293.114 244.586L293.078 243.992C292.31 244.844 291.2 245.27 289.748 245.27ZM300.963 245.27C299.895 245.27 299.037 244.982 298.389 244.406C297.753 243.83 297.435 242.99 297.435 241.886V236.342C297.435 236.066 297.495 235.868 297.615 235.748C297.735 235.616 297.945 235.55 298.245 235.55H299.577C299.877 235.55 300.087 235.616 300.207 235.748C300.339 235.88 300.405 236.078 300.405 236.342V241.796C300.405 242.276 300.525 242.63 300.765 242.858C301.017 243.086 301.395 243.2 301.899 243.2C302.415 243.2 302.859 243.056 303.231 242.768C303.615 242.468 303.807 242.12 303.807 241.724V236.342C303.807 236.078 303.867 235.88 303.987 235.748C304.119 235.616 304.329 235.55 304.617 235.55H305.967C306.267 235.55 306.477 235.616 306.597 235.748C306.729 235.88 306.795 236.078 306.795 236.342V244.298C306.795 244.766 306.561 245 306.093 245H304.851C304.515 245 304.341 244.862 304.329 244.586L304.293 243.992C303.525 244.844 302.415 245.27 300.963 245.27ZM309.639 239.78C309.135 239.78 308.781 239.678 308.577 239.474C308.385 239.258 308.289 238.916 308.289 238.448V237.206C308.289 236.93 308.343 236.744 308.451 236.648C308.559 236.54 308.745 236.486 309.009 236.486H309.873C310.137 236.486 310.323 236.54 310.431 236.648C310.539 236.744 310.593 236.936 310.593 237.224V237.98C311.529 237.788 312.243 237.692 312.735 237.692C312.999 237.692 313.173 237.74 313.257 237.836C313.353 237.92 313.401 238.094 313.401 238.358V239.132C313.401 239.372 313.347 239.54 313.239 239.636C313.143 239.732 312.957 239.78 312.681 239.78H309.639ZM309.639 244.46C309.135 244.46 308.781 244.358 308.577 244.154C308.385 243.938 308.289 243.596 308.289 243.128V241.886C308.289 241.61 308.343 241.424 308.451 241.328C308.559 241.22 308.745 241.166 309.009 241.166H309.873C310.137 241.166 310.323 241.22 310.431 241.328C310.539 241.424 310.593 241.616 310.593 241.904V242.66C311.529 242.468 312.243 242.372 312.735 242.372C312.999 242.372 313.173 242.42 313.257 242.516C313.353 242.6 313.401 242.774 313.401 243.038V243.812C313.401 244.052 313.347 244.22 313.239 244.316C313.143 244.412 312.957 244.46 312.681 244.46H309.639Z" fill="white"/>
<ellipse cx="171.5" cy="31" rx="192.5" ry="75" fill="#69BDFB"/>
<path d="M181.602 41.0801C181.602 41.0801 193.028 39 203.45 39C213.872 39 216.908 42.2756 217.434 44.7382C217.984 47.2008 210.789 45.5989 206.008 54.6366C206.032 54.6366 189.466 53.9193 181.602 41.0801Z" fill="#FC9CD6"/>
<path d="M166.494 78.3521C157.458 94.7538 163.864 103.815 159.514 103.648C155.187 103.481 147.681 94.1561 148.351 81.8429C148.351 81.8429 149.713 77.0849 156.502 75.0766C163.291 73.0682 166.494 78.3521 166.494 78.3521Z" fill="#F991CF"/>
<path d="M205.1 136.023C188.199 140.303 190.829 155.892 190.829 155.892C190.829 155.892 192.191 150.393 197.952 150.393C203.713 150.393 207.275 145.133 207.275 145.133C209.187 152.234 213.586 150.656 216.598 152.305C219.61 153.955 221.976 159 221.976 159C221.976 139.681 211.649 135.999 211.649 135.999C211.649 135.999 222 119.526 222 92.5565C222 65.587 201.251 39 164.749 39C128.247 39 109.243 66.4238 111.944 82.156C111.944 82.156 102 91.6001 102 96.5254C102 107.261 115.147 99.3706 128.797 91.1458C143.976 81.9886 173.259 69.2451 190.805 88.1572C208.351 107.069 205.1 136.023 205.1 136.023Z" fill="#FC9CD6"/>
<path d="M206.031 54.6357C206.055 54.7314 216.549 85.1677 200.486 103.673C206.94 119.764 205.075 136.022 205.075 136.022C188.175 140.302 190.804 155.891 190.804 155.891C190.804 155.891 192.167 150.392 197.928 150.392C203.689 150.392 207.251 145.132 207.251 145.132C209.163 152.233 213.561 150.655 216.573 152.305C219.585 153.954 221.952 158.999 221.952 158.999C221.952 139.681 211.625 135.999 211.625 135.999C211.625 135.999 222 119.525 222 92.5557C222 78.5927 216.454 64.7493 206.031 54.6357Z" fill="#F991CF"/>
<path d="M189.657 76.4669C163.362 59.5392 136.637 70.2027 129.729 79.8859C119.235 94.5661 102.358 99.0132 102.311 99.0132C104.39 105.803 116.39 98.6306 128.797 91.1232C143.976 81.966 173.259 69.2224 190.805 88.1345C208.374 107.047 205.075 136.025 205.075 136.025C205.075 136.025 215.976 93.3945 189.657 76.4669Z" fill="#FDCDFE"/>
<path d="M102.599 100.184L102.049 97.8645L102.312 99.036L102.025 97.8645C102.193 97.8167 119.069 93.6804 128.727 79.2393L130.711 80.5782C125.38 88.5638 118.041 93.4652 112.806 96.1669C107.141 99.0839 102.79 100.136 102.599 100.184Z" fill="#87274F"/>
<path d="M178.136 70.3179C173.187 80.0489 176.343 94.8008 171.299 94.49C167.737 94.2748 156.191 82.7745 160.303 67.5444C160.303 67.5444 164.223 65.3926 170.415 66.1577C176.606 66.9228 178.136 70.3179 178.136 70.3179Z" fill="#FC9CD6"/>
<path d="M133.314 75.0981C135.294 75.0981 136.9 73.4927 136.9 71.5124C136.9 69.5321 135.294 67.9268 133.314 67.9268C131.334 67.9268 129.729 69.5321 129.729 71.5124C129.729 73.4927 131.334 75.0981 133.314 75.0981Z" fill="#87274F"/>
<path d="M204.765 97.3633C203.618 99.5629 202.207 101.691 200.486 103.651C206.941 119.742 205.076 136 205.076 136C205.076 136 210.311 115.558 204.765 97.3633Z" fill="#FC9CD6"/>
<path d="M133.866 54.1059C134.616 55.7657 139.446 55.2017 144.654 52.8461C149.861 50.4905 153.475 47.2354 152.724 45.5756C151.974 43.9158 147.144 44.4799 141.936 46.8355C136.729 49.191 133.115 52.4461 133.866 54.1059Z" fill="#FDCDFE"/>
</g>
<defs>
<clipPath id="clip0_503_3821">
<rect width="350" height="313" rx="20" fill="white"/>
</clipPath>
</defs>
</svg>
