<svg width="56" height="56" viewBox="0 0 56 56" fill="none" xmlns="http://www.w3.org/2000/svg">
<circle cx="28" cy="28" r="28" fill="#FDCDFE" fill-opacity="0.3"/>
<path d="M34.5342 8.69337C34.5342 8.69337 38.3429 8 41.817 8C45.2912 8 46.3031 9.09185 46.4784 9.91273C46.6617 10.7336 44.2633 10.1996 42.6696 13.2122C42.6776 13.2122 37.1557 12.9731 34.5342 8.69337Z" fill="#FC9CD6"/>
<path d="M29.4983 21.1177C26.4864 26.5849 28.6218 29.6054 27.1716 29.5497C25.7294 29.4939 23.2274 26.3857 23.4505 22.2813C23.4505 22.2813 23.9047 20.6953 26.1676 20.0259C28.4306 19.3564 29.4983 21.1177 29.4983 21.1177Z" fill="#F991CF"/>
<path d="M42.3665 40.3411C36.7331 41.7677 37.6096 46.9639 37.6096 46.9639C37.6096 46.9639 38.0637 45.1309 39.9841 45.1309C41.9044 45.1309 43.0916 43.3776 43.0916 43.3776C43.7291 45.7446 45.1952 45.2186 46.1992 45.7685C47.2032 46.3184 47.992 48 47.992 48C47.992 41.5605 44.5498 40.3331 44.5498 40.3331C44.5498 40.3331 48 34.842 48 25.8522C48 16.8623 41.0837 8 28.9163 8C16.749 8 10.4143 17.1413 11.3147 22.3853C11.3147 22.3853 8 25.5334 8 27.1751C8 30.7535 12.3825 28.1235 16.9323 25.3819C21.992 22.3295 31.753 18.0817 37.6016 24.3857C43.4502 30.6898 42.3665 40.3411 42.3665 40.3411Z" fill="#FC9CD6"/>
<path d="M42.6768 13.2119C42.6848 13.2438 46.1828 23.3892 40.8282 29.5578C42.9796 34.9214 42.3581 40.3408 42.3581 40.3408C36.7246 41.7674 37.6011 46.9637 37.6011 46.9637C37.6011 46.9637 38.0553 45.1306 39.9756 45.1306C41.8959 45.1306 43.0832 43.3773 43.0832 43.3773C43.7206 45.7443 45.1868 45.2183 46.1908 45.7682C47.1947 46.3181 47.9836 47.9997 47.9836 47.9997C47.9836 41.5602 44.5414 40.3329 44.5414 40.3329C44.5414 40.3329 47.9995 34.8417 47.9995 25.8519C47.9995 21.1976 46.1509 16.5831 42.6768 13.2119Z" fill="#F991CF"/>
<path d="M37.2191 20.4886C28.4541 14.8461 19.5457 18.4006 17.243 21.6283C13.745 26.5217 8.11945 28.0041 8.10352 28.0041C8.79674 30.2675 12.7967 27.8766 16.9322 25.3741C21.992 22.3217 31.7529 18.0738 37.6015 24.3778C43.4581 30.6819 42.3585 40.3412 42.3585 40.3412C42.3585 40.3412 45.992 26.1312 37.2191 20.4886Z" fill="#FDCDFE"/>
<path d="M8.19905 28.3946L8.01578 27.6215L8.10343 28.012L8.00781 27.6215C8.06359 27.6056 13.6891 26.2268 16.9082 21.4131L17.5696 21.8594C15.7927 24.5213 13.3465 26.1551 11.6014 27.0556C9.71299 28.0279 8.26279 28.3786 8.19905 28.3946Z" fill="#87274F"/>
<path d="M33.3779 18.4396C31.7285 21.6833 32.7803 26.6006 31.099 26.497C29.9118 26.4253 26.0632 22.5918 27.4337 17.5151C27.4337 17.5151 28.7405 16.7979 30.8042 17.0529C32.8679 17.3079 33.3779 18.4396 33.3779 18.4396Z" fill="#FC9CD6"/>
<path d="M18.4384 20.033C19.0985 20.033 19.6336 19.4979 19.6336 18.8378C19.6336 18.1777 19.0985 17.6426 18.4384 17.6426C17.7783 17.6426 17.2432 18.1777 17.2432 18.8378C17.2432 19.4979 17.7783 20.033 18.4384 20.033Z" fill="#87274F"/>
<path d="M42.2554 27.4541C41.8729 28.1873 41.4028 28.8966 40.8291 29.5501C42.9805 34.9138 42.359 40.3332 42.359 40.3332C42.359 40.3332 44.104 33.5191 42.2554 27.4541Z" fill="#FC9CD6"/>
<path d="M18.622 13.0356C18.8722 13.5889 20.4821 13.4009 22.218 12.6157C23.9538 11.8305 25.1582 10.7455 24.908 10.1922C24.6579 9.63894 23.0479 9.82695 21.3121 10.6121C19.5762 11.3973 18.3718 12.4824 18.622 13.0356Z" fill="#FDCDFE"/>
</svg>
